<?xml version="1.0" encoding="utf-8" standalone="no"?>
<!DOCTYPE svg PUBLIC "-//W3C//DTD SVG 1.1//EN"
  "http://www.w3.org/Graphics/SVG/1.1/DTD/svg11.dtd">
<!-- Created with matplotlib (https://matplotlib.org/) -->
<svg height="345.6pt" version="1.1" viewBox="0 0 460.8 345.6" width="460.8pt" xmlns="http://www.w3.org/2000/svg" xmlns:xlink="http://www.w3.org/1999/xlink">
 <metadata>
  <rdf:RDF xmlns:cc="http://creativecommons.org/ns#" xmlns:dc="http://purl.org/dc/elements/1.1/" xmlns:rdf="http://www.w3.org/1999/02/22-rdf-syntax-ns#">
   <cc:Work>
    <dc:type rdf:resource="http://purl.org/dc/dcmitype/StillImage"/>
    <dc:date>2020-12-11T21:08:15.429934</dc:date>
    <dc:format>image/svg+xml</dc:format>
    <dc:creator>
     <cc:Agent>
      <dc:title>Matplotlib v3.3.2, https://matplotlib.org/</dc:title>
     </cc:Agent>
    </dc:creator>
   </cc:Work>
  </rdf:RDF>
 </metadata>
 <defs>
  <style type="text/css">*{stroke-linecap:butt;stroke-linejoin:round;}</style>
 </defs>
 <g id="figure_1">
  <g id="patch_1">
   <path d="M 0 345.6 
L 460.8 345.6 
L 460.8 0 
L 0 0 
z
" style="fill:#ffffff;"/>
  </g>
  <g id="axes_1">
   <g id="patch_2">
    <path d="M 57.6 307.584 
L 414.72 307.584 
L 414.72 41.472 
L 57.6 41.472 
z
" style="fill:#ffffff;"/>
   </g>
   <g id="line2d_1">
    <path clip-path="url(#pf0acb50f9e)" d="M 236.16 307.584 
L 236.16 41.472 
" style="fill:none;stroke:#1f77b4;stroke-dasharray:2.59,1.12;stroke-dashoffset:0;stroke-opacity:0.3;stroke-width:0.7;"/>
   </g>
   <g id="matplotlib.axis_1">
    <g id="xtick_1">
     <g id="line2d_2">
      <defs>
       <path d="M 0 0 
L 0 3.5 
" id="m37e3720f1f" style="stroke:#000000;stroke-width:0.8;"/>
      </defs>
      <g>
       <use style="stroke:#000000;stroke-width:0.8;" x="57.6" xlink:href="#m37e3720f1f" y="307.584"/>
      </g>
     </g>
     <g id="text_1">
      <!-- 0.0 -->
      <g transform="translate(49.648438 322.182437)scale(0.1 -0.1)">
       <defs>
        <path d="M 31.78125 66.40625 
Q 24.171875 66.40625 20.328125 58.90625 
Q 16.5 51.421875 16.5 36.375 
Q 16.5 21.390625 20.328125 13.890625 
Q 24.171875 6.390625 31.78125 6.390625 
Q 39.453125 6.390625 43.28125 13.890625 
Q 47.125 21.390625 47.125 36.375 
Q 47.125 51.421875 43.28125 58.90625 
Q 39.453125 66.40625 31.78125 66.40625 
z
M 31.78125 74.21875 
Q 44.046875 74.21875 50.515625 64.515625 
Q 56.984375 54.828125 56.984375 36.375 
Q 56.984375 17.96875 50.515625 8.265625 
Q 44.046875 -1.421875 31.78125 -1.421875 
Q 19.53125 -1.421875 13.0625 8.265625 
Q 6.59375 17.96875 6.59375 36.375 
Q 6.59375 54.828125 13.0625 64.515625 
Q 19.53125 74.21875 31.78125 74.21875 
z
" id="DejaVuSans-48"/>
        <path d="M 10.6875 12.40625 
L 21 12.40625 
L 21 0 
L 10.6875 0 
z
" id="DejaVuSans-46"/>
       </defs>
       <use xlink:href="#DejaVuSans-48"/>
       <use x="63.623047" xlink:href="#DejaVuSans-46"/>
       <use x="95.410156" xlink:href="#DejaVuSans-48"/>
      </g>
     </g>
    </g>
    <g id="xtick_2">
     <g id="line2d_3">
      <g>
       <use style="stroke:#000000;stroke-width:0.8;" x="129.024" xlink:href="#m37e3720f1f" y="307.584"/>
      </g>
     </g>
     <g id="text_2">
      <!-- 0.2 -->
      <g transform="translate(121.072438 322.182437)scale(0.1 -0.1)">
       <defs>
        <path d="M 19.1875 8.296875 
L 53.609375 8.296875 
L 53.609375 0 
L 7.328125 0 
L 7.328125 8.296875 
Q 12.9375 14.109375 22.625 23.890625 
Q 32.328125 33.6875 34.8125 36.53125 
Q 39.546875 41.84375 41.421875 45.53125 
Q 43.3125 49.21875 43.3125 52.78125 
Q 43.3125 58.59375 39.234375 62.25 
Q 35.15625 65.921875 28.609375 65.921875 
Q 23.96875 65.921875 18.8125 64.3125 
Q 13.671875 62.703125 7.8125 59.421875 
L 7.8125 69.390625 
Q 13.765625 71.78125 18.9375 73 
Q 24.125 74.21875 28.421875 74.21875 
Q 39.75 74.21875 46.484375 68.546875 
Q 53.21875 62.890625 53.21875 53.421875 
Q 53.21875 48.921875 51.53125 44.890625 
Q 49.859375 40.875 45.40625 35.40625 
Q 44.1875 33.984375 37.640625 27.21875 
Q 31.109375 20.453125 19.1875 8.296875 
z
" id="DejaVuSans-50"/>
       </defs>
       <use xlink:href="#DejaVuSans-48"/>
       <use x="63.623047" xlink:href="#DejaVuSans-46"/>
       <use x="95.410156" xlink:href="#DejaVuSans-50"/>
      </g>
     </g>
    </g>
    <g id="xtick_3">
     <g id="line2d_4">
      <g>
       <use style="stroke:#000000;stroke-width:0.8;" x="200.448" xlink:href="#m37e3720f1f" y="307.584"/>
      </g>
     </g>
     <g id="text_3">
      <!-- 0.4 -->
      <g transform="translate(192.496438 322.182437)scale(0.1 -0.1)">
       <defs>
        <path d="M 37.796875 64.3125 
L 12.890625 25.390625 
L 37.796875 25.390625 
z
M 35.203125 72.90625 
L 47.609375 72.90625 
L 47.609375 25.390625 
L 58.015625 25.390625 
L 58.015625 17.1875 
L 47.609375 17.1875 
L 47.609375 0 
L 37.796875 0 
L 37.796875 17.1875 
L 4.890625 17.1875 
L 4.890625 26.703125 
z
" id="DejaVuSans-52"/>
       </defs>
       <use xlink:href="#DejaVuSans-48"/>
       <use x="63.623047" xlink:href="#DejaVuSans-46"/>
       <use x="95.410156" xlink:href="#DejaVuSans-52"/>
      </g>
     </g>
    </g>
    <g id="xtick_4">
     <g id="line2d_5">
      <g>
       <use style="stroke:#000000;stroke-width:0.8;" x="271.872" xlink:href="#m37e3720f1f" y="307.584"/>
      </g>
     </g>
     <g id="text_4">
      <!-- 0.6 -->
      <g transform="translate(263.920438 322.182437)scale(0.1 -0.1)">
       <defs>
        <path d="M 33.015625 40.375 
Q 26.375 40.375 22.484375 35.828125 
Q 18.609375 31.296875 18.609375 23.390625 
Q 18.609375 15.53125 22.484375 10.953125 
Q 26.375 6.390625 33.015625 6.390625 
Q 39.65625 6.390625 43.53125 10.953125 
Q 47.40625 15.53125 47.40625 23.390625 
Q 47.40625 31.296875 43.53125 35.828125 
Q 39.65625 40.375 33.015625 40.375 
z
M 52.59375 71.296875 
L 52.59375 62.3125 
Q 48.875 64.0625 45.09375 64.984375 
Q 41.3125 65.921875 37.59375 65.921875 
Q 27.828125 65.921875 22.671875 59.328125 
Q 17.53125 52.734375 16.796875 39.40625 
Q 19.671875 43.65625 24.015625 45.921875 
Q 28.375 48.1875 33.59375 48.1875 
Q 44.578125 48.1875 50.953125 41.515625 
Q 57.328125 34.859375 57.328125 23.390625 
Q 57.328125 12.15625 50.6875 5.359375 
Q 44.046875 -1.421875 33.015625 -1.421875 
Q 20.359375 -1.421875 13.671875 8.265625 
Q 6.984375 17.96875 6.984375 36.375 
Q 6.984375 53.65625 15.1875 63.9375 
Q 23.390625 74.21875 37.203125 74.21875 
Q 40.921875 74.21875 44.703125 73.484375 
Q 48.484375 72.75 52.59375 71.296875 
z
" id="DejaVuSans-54"/>
       </defs>
       <use xlink:href="#DejaVuSans-48"/>
       <use x="63.623047" xlink:href="#DejaVuSans-46"/>
       <use x="95.410156" xlink:href="#DejaVuSans-54"/>
      </g>
     </g>
    </g>
    <g id="xtick_5">
     <g id="line2d_6">
      <g>
       <use style="stroke:#000000;stroke-width:0.8;" x="343.296" xlink:href="#m37e3720f1f" y="307.584"/>
      </g>
     </g>
     <g id="text_5">
      <!-- 0.8 -->
      <g transform="translate(335.344438 322.182437)scale(0.1 -0.1)">
       <defs>
        <path d="M 31.78125 34.625 
Q 24.75 34.625 20.71875 30.859375 
Q 16.703125 27.09375 16.703125 20.515625 
Q 16.703125 13.921875 20.71875 10.15625 
Q 24.75 6.390625 31.78125 6.390625 
Q 38.8125 6.390625 42.859375 10.171875 
Q 46.921875 13.96875 46.921875 20.515625 
Q 46.921875 27.09375 42.890625 30.859375 
Q 38.875 34.625 31.78125 34.625 
z
M 21.921875 38.8125 
Q 15.578125 40.375 12.03125 44.71875 
Q 8.5 49.078125 8.5 55.328125 
Q 8.5 64.0625 14.71875 69.140625 
Q 20.953125 74.21875 31.78125 74.21875 
Q 42.671875 74.21875 48.875 69.140625 
Q 55.078125 64.0625 55.078125 55.328125 
Q 55.078125 49.078125 51.53125 44.71875 
Q 48 40.375 41.703125 38.8125 
Q 48.828125 37.15625 52.796875 32.3125 
Q 56.78125 27.484375 56.78125 20.515625 
Q 56.78125 9.90625 50.3125 4.234375 
Q 43.84375 -1.421875 31.78125 -1.421875 
Q 19.734375 -1.421875 13.25 4.234375 
Q 6.78125 9.90625 6.78125 20.515625 
Q 6.78125 27.484375 10.78125 32.3125 
Q 14.796875 37.15625 21.921875 38.8125 
z
M 18.3125 54.390625 
Q 18.3125 48.734375 21.84375 45.5625 
Q 25.390625 42.390625 31.78125 42.390625 
Q 38.140625 42.390625 41.71875 45.5625 
Q 45.3125 48.734375 45.3125 54.390625 
Q 45.3125 60.0625 41.71875 63.234375 
Q 38.140625 66.40625 31.78125 66.40625 
Q 25.390625 66.40625 21.84375 63.234375 
Q 18.3125 60.0625 18.3125 54.390625 
z
" id="DejaVuSans-56"/>
       </defs>
       <use xlink:href="#DejaVuSans-48"/>
       <use x="63.623047" xlink:href="#DejaVuSans-46"/>
       <use x="95.410156" xlink:href="#DejaVuSans-56"/>
      </g>
     </g>
    </g>
    <g id="xtick_6">
     <g id="line2d_7">
      <g>
       <use style="stroke:#000000;stroke-width:0.8;" x="414.72" xlink:href="#m37e3720f1f" y="307.584"/>
      </g>
     </g>
     <g id="text_6">
      <!-- 1.0 -->
      <g transform="translate(406.768438 322.182437)scale(0.1 -0.1)">
       <defs>
        <path d="M 12.40625 8.296875 
L 28.515625 8.296875 
L 28.515625 63.921875 
L 10.984375 60.40625 
L 10.984375 69.390625 
L 28.421875 72.90625 
L 38.28125 72.90625 
L 38.28125 8.296875 
L 54.390625 8.296875 
L 54.390625 0 
L 12.40625 0 
z
" id="DejaVuSans-49"/>
       </defs>
       <use xlink:href="#DejaVuSans-49"/>
       <use x="63.623047" xlink:href="#DejaVuSans-46"/>
       <use x="95.410156" xlink:href="#DejaVuSans-48"/>
      </g>
     </g>
    </g>
    <g id="text_7">
     <!-- Cumulative coverage (normalized to 1) -->
     <g transform="translate(138.165469 335.860562)scale(0.1 -0.1)">
      <defs>
       <path d="M 64.40625 67.28125 
L 64.40625 56.890625 
Q 59.421875 61.53125 53.78125 63.8125 
Q 48.140625 66.109375 41.796875 66.109375 
Q 29.296875 66.109375 22.65625 58.46875 
Q 16.015625 50.828125 16.015625 36.375 
Q 16.015625 21.96875 22.65625 14.328125 
Q 29.296875 6.6875 41.796875 6.6875 
Q 48.140625 6.6875 53.78125 8.984375 
Q 59.421875 11.28125 64.40625 15.921875 
L 64.40625 5.609375 
Q 59.234375 2.09375 53.4375 0.328125 
Q 47.65625 -1.421875 41.21875 -1.421875 
Q 24.65625 -1.421875 15.125 8.703125 
Q 5.609375 18.84375 5.609375 36.375 
Q 5.609375 53.953125 15.125 64.078125 
Q 24.65625 74.21875 41.21875 74.21875 
Q 47.75 74.21875 53.53125 72.484375 
Q 59.328125 70.75 64.40625 67.28125 
z
" id="DejaVuSans-67"/>
       <path d="M 8.5 21.578125 
L 8.5 54.6875 
L 17.484375 54.6875 
L 17.484375 21.921875 
Q 17.484375 14.15625 20.5 10.265625 
Q 23.53125 6.390625 29.59375 6.390625 
Q 36.859375 6.390625 41.078125 11.03125 
Q 45.3125 15.671875 45.3125 23.6875 
L 45.3125 54.6875 
L 54.296875 54.6875 
L 54.296875 0 
L 45.3125 0 
L 45.3125 8.40625 
Q 42.046875 3.421875 37.71875 1 
Q 33.40625 -1.421875 27.6875 -1.421875 
Q 18.265625 -1.421875 13.375 4.4375 
Q 8.5 10.296875 8.5 21.578125 
z
M 31.109375 56 
z
" id="DejaVuSans-117"/>
       <path d="M 52 44.1875 
Q 55.375 50.25 60.0625 53.125 
Q 64.75 56 71.09375 56 
Q 79.640625 56 84.28125 50.015625 
Q 88.921875 44.046875 88.921875 33.015625 
L 88.921875 0 
L 79.890625 0 
L 79.890625 32.71875 
Q 79.890625 40.578125 77.09375 44.375 
Q 74.3125 48.1875 68.609375 48.1875 
Q 61.625 48.1875 57.5625 43.546875 
Q 53.515625 38.921875 53.515625 30.90625 
L 53.515625 0 
L 44.484375 0 
L 44.484375 32.71875 
Q 44.484375 40.625 41.703125 44.40625 
Q 38.921875 48.1875 33.109375 48.1875 
Q 26.21875 48.1875 22.15625 43.53125 
Q 18.109375 38.875 18.109375 30.90625 
L 18.109375 0 
L 9.078125 0 
L 9.078125 54.6875 
L 18.109375 54.6875 
L 18.109375 46.1875 
Q 21.1875 51.21875 25.484375 53.609375 
Q 29.78125 56 35.6875 56 
Q 41.65625 56 45.828125 52.96875 
Q 50 49.953125 52 44.1875 
z
" id="DejaVuSans-109"/>
       <path d="M 9.421875 75.984375 
L 18.40625 75.984375 
L 18.40625 0 
L 9.421875 0 
z
" id="DejaVuSans-108"/>
       <path d="M 34.28125 27.484375 
Q 23.390625 27.484375 19.1875 25 
Q 14.984375 22.515625 14.984375 16.5 
Q 14.984375 11.71875 18.140625 8.90625 
Q 21.296875 6.109375 26.703125 6.109375 
Q 34.1875 6.109375 38.703125 11.40625 
Q 43.21875 16.703125 43.21875 25.484375 
L 43.21875 27.484375 
z
M 52.203125 31.203125 
L 52.203125 0 
L 43.21875 0 
L 43.21875 8.296875 
Q 40.140625 3.328125 35.546875 0.953125 
Q 30.953125 -1.421875 24.3125 -1.421875 
Q 15.921875 -1.421875 10.953125 3.296875 
Q 6 8.015625 6 15.921875 
Q 6 25.140625 12.171875 29.828125 
Q 18.359375 34.515625 30.609375 34.515625 
L 43.21875 34.515625 
L 43.21875 35.40625 
Q 43.21875 41.609375 39.140625 45 
Q 35.0625 48.390625 27.6875 48.390625 
Q 23 48.390625 18.546875 47.265625 
Q 14.109375 46.140625 10.015625 43.890625 
L 10.015625 52.203125 
Q 14.9375 54.109375 19.578125 55.046875 
Q 24.21875 56 28.609375 56 
Q 40.484375 56 46.34375 49.84375 
Q 52.203125 43.703125 52.203125 31.203125 
z
" id="DejaVuSans-97"/>
       <path d="M 18.3125 70.21875 
L 18.3125 54.6875 
L 36.8125 54.6875 
L 36.8125 47.703125 
L 18.3125 47.703125 
L 18.3125 18.015625 
Q 18.3125 11.328125 20.140625 9.421875 
Q 21.96875 7.515625 27.59375 7.515625 
L 36.8125 7.515625 
L 36.8125 0 
L 27.59375 0 
Q 17.1875 0 13.234375 3.875 
Q 9.28125 7.765625 9.28125 18.015625 
L 9.28125 47.703125 
L 2.6875 47.703125 
L 2.6875 54.6875 
L 9.28125 54.6875 
L 9.28125 70.21875 
z
" id="DejaVuSans-116"/>
       <path d="M 9.421875 54.6875 
L 18.40625 54.6875 
L 18.40625 0 
L 9.421875 0 
z
M 9.421875 75.984375 
L 18.40625 75.984375 
L 18.40625 64.59375 
L 9.421875 64.59375 
z
" id="DejaVuSans-105"/>
       <path d="M 2.984375 54.6875 
L 12.5 54.6875 
L 29.59375 8.796875 
L 46.6875 54.6875 
L 56.203125 54.6875 
L 35.6875 0 
L 23.484375 0 
z
" id="DejaVuSans-118"/>
       <path d="M 56.203125 29.59375 
L 56.203125 25.203125 
L 14.890625 25.203125 
Q 15.484375 15.921875 20.484375 11.0625 
Q 25.484375 6.203125 34.421875 6.203125 
Q 39.59375 6.203125 44.453125 7.46875 
Q 49.3125 8.734375 54.109375 11.28125 
L 54.109375 2.78125 
Q 49.265625 0.734375 44.1875 -0.34375 
Q 39.109375 -1.421875 33.890625 -1.421875 
Q 20.796875 -1.421875 13.15625 6.1875 
Q 5.515625 13.8125 5.515625 26.8125 
Q 5.515625 40.234375 12.765625 48.109375 
Q 20.015625 56 32.328125 56 
Q 43.359375 56 49.78125 48.890625 
Q 56.203125 41.796875 56.203125 29.59375 
z
M 47.21875 32.234375 
Q 47.125 39.59375 43.09375 43.984375 
Q 39.0625 48.390625 32.421875 48.390625 
Q 24.90625 48.390625 20.390625 44.140625 
Q 15.875 39.890625 15.1875 32.171875 
z
" id="DejaVuSans-101"/>
       <path id="DejaVuSans-32"/>
       <path d="M 48.78125 52.59375 
L 48.78125 44.1875 
Q 44.96875 46.296875 41.140625 47.34375 
Q 37.3125 48.390625 33.40625 48.390625 
Q 24.65625 48.390625 19.8125 42.84375 
Q 14.984375 37.3125 14.984375 27.296875 
Q 14.984375 17.28125 19.8125 11.734375 
Q 24.65625 6.203125 33.40625 6.203125 
Q 37.3125 6.203125 41.140625 7.25 
Q 44.96875 8.296875 48.78125 10.40625 
L 48.78125 2.09375 
Q 45.015625 0.34375 40.984375 -0.53125 
Q 36.96875 -1.421875 32.421875 -1.421875 
Q 20.0625 -1.421875 12.78125 6.34375 
Q 5.515625 14.109375 5.515625 27.296875 
Q 5.515625 40.671875 12.859375 48.328125 
Q 20.21875 56 33.015625 56 
Q 37.15625 56 41.109375 55.140625 
Q 45.0625 54.296875 48.78125 52.59375 
z
" id="DejaVuSans-99"/>
       <path d="M 30.609375 48.390625 
Q 23.390625 48.390625 19.1875 42.75 
Q 14.984375 37.109375 14.984375 27.296875 
Q 14.984375 17.484375 19.15625 11.84375 
Q 23.34375 6.203125 30.609375 6.203125 
Q 37.796875 6.203125 41.984375 11.859375 
Q 46.1875 17.53125 46.1875 27.296875 
Q 46.1875 37.015625 41.984375 42.703125 
Q 37.796875 48.390625 30.609375 48.390625 
z
M 30.609375 56 
Q 42.328125 56 49.015625 48.375 
Q 55.71875 40.765625 55.71875 27.296875 
Q 55.71875 13.875 49.015625 6.21875 
Q 42.328125 -1.421875 30.609375 -1.421875 
Q 18.84375 -1.421875 12.171875 6.21875 
Q 5.515625 13.875 5.515625 27.296875 
Q 5.515625 40.765625 12.171875 48.375 
Q 18.84375 56 30.609375 56 
z
" id="DejaVuSans-111"/>
       <path d="M 41.109375 46.296875 
Q 39.59375 47.171875 37.8125 47.578125 
Q 36.03125 48 33.890625 48 
Q 26.265625 48 22.1875 43.046875 
Q 18.109375 38.09375 18.109375 28.8125 
L 18.109375 0 
L 9.078125 0 
L 9.078125 54.6875 
L 18.109375 54.6875 
L 18.109375 46.1875 
Q 20.953125 51.171875 25.484375 53.578125 
Q 30.03125 56 36.53125 56 
Q 37.453125 56 38.578125 55.875 
Q 39.703125 55.765625 41.0625 55.515625 
z
" id="DejaVuSans-114"/>
       <path d="M 45.40625 27.984375 
Q 45.40625 37.75 41.375 43.109375 
Q 37.359375 48.484375 30.078125 48.484375 
Q 22.859375 48.484375 18.828125 43.109375 
Q 14.796875 37.75 14.796875 27.984375 
Q 14.796875 18.265625 18.828125 12.890625 
Q 22.859375 7.515625 30.078125 7.515625 
Q 37.359375 7.515625 41.375 12.890625 
Q 45.40625 18.265625 45.40625 27.984375 
z
M 54.390625 6.78125 
Q 54.390625 -7.171875 48.1875 -13.984375 
Q 42 -20.796875 29.203125 -20.796875 
Q 24.46875 -20.796875 20.265625 -20.09375 
Q 16.0625 -19.390625 12.109375 -17.921875 
L 12.109375 -9.1875 
Q 16.0625 -11.328125 19.921875 -12.34375 
Q 23.78125 -13.375 27.78125 -13.375 
Q 36.625 -13.375 41.015625 -8.765625 
Q 45.40625 -4.15625 45.40625 5.171875 
L 45.40625 9.625 
Q 42.625 4.78125 38.28125 2.390625 
Q 33.9375 0 27.875 0 
Q 17.828125 0 11.671875 7.65625 
Q 5.515625 15.328125 5.515625 27.984375 
Q 5.515625 40.671875 11.671875 48.328125 
Q 17.828125 56 27.875 56 
Q 33.9375 56 38.28125 53.609375 
Q 42.625 51.21875 45.40625 46.390625 
L 45.40625 54.6875 
L 54.390625 54.6875 
z
" id="DejaVuSans-103"/>
       <path d="M 31 75.875 
Q 24.46875 64.65625 21.28125 53.65625 
Q 18.109375 42.671875 18.109375 31.390625 
Q 18.109375 20.125 21.3125 9.0625 
Q 24.515625 -2 31 -13.1875 
L 23.1875 -13.1875 
Q 15.875 -1.703125 12.234375 9.375 
Q 8.59375 20.453125 8.59375 31.390625 
Q 8.59375 42.28125 12.203125 53.3125 
Q 15.828125 64.359375 23.1875 75.875 
z
" id="DejaVuSans-40"/>
       <path d="M 54.890625 33.015625 
L 54.890625 0 
L 45.90625 0 
L 45.90625 32.71875 
Q 45.90625 40.484375 42.875 44.328125 
Q 39.84375 48.1875 33.796875 48.1875 
Q 26.515625 48.1875 22.3125 43.546875 
Q 18.109375 38.921875 18.109375 30.90625 
L 18.109375 0 
L 9.078125 0 
L 9.078125 54.6875 
L 18.109375 54.6875 
L 18.109375 46.1875 
Q 21.34375 51.125 25.703125 53.5625 
Q 30.078125 56 35.796875 56 
Q 45.21875 56 50.046875 50.171875 
Q 54.890625 44.34375 54.890625 33.015625 
z
" id="DejaVuSans-110"/>
       <path d="M 5.515625 54.6875 
L 48.1875 54.6875 
L 48.1875 46.484375 
L 14.40625 7.171875 
L 48.1875 7.171875 
L 48.1875 0 
L 4.296875 0 
L 4.296875 8.203125 
L 38.09375 47.515625 
L 5.515625 47.515625 
z
" id="DejaVuSans-122"/>
       <path d="M 45.40625 46.390625 
L 45.40625 75.984375 
L 54.390625 75.984375 
L 54.390625 0 
L 45.40625 0 
L 45.40625 8.203125 
Q 42.578125 3.328125 38.25 0.953125 
Q 33.9375 -1.421875 27.875 -1.421875 
Q 17.96875 -1.421875 11.734375 6.484375 
Q 5.515625 14.40625 5.515625 27.296875 
Q 5.515625 40.1875 11.734375 48.09375 
Q 17.96875 56 27.875 56 
Q 33.9375 56 38.25 53.625 
Q 42.578125 51.265625 45.40625 46.390625 
z
M 14.796875 27.296875 
Q 14.796875 17.390625 18.875 11.75 
Q 22.953125 6.109375 30.078125 6.109375 
Q 37.203125 6.109375 41.296875 11.75 
Q 45.40625 17.390625 45.40625 27.296875 
Q 45.40625 37.203125 41.296875 42.84375 
Q 37.203125 48.484375 30.078125 48.484375 
Q 22.953125 48.484375 18.875 42.84375 
Q 14.796875 37.203125 14.796875 27.296875 
z
" id="DejaVuSans-100"/>
       <path d="M 8.015625 75.875 
L 15.828125 75.875 
Q 23.140625 64.359375 26.78125 53.3125 
Q 30.421875 42.28125 30.421875 31.390625 
Q 30.421875 20.453125 26.78125 9.375 
Q 23.140625 -1.703125 15.828125 -13.1875 
L 8.015625 -13.1875 
Q 14.5 -2 17.703125 9.0625 
Q 20.90625 20.125 20.90625 31.390625 
Q 20.90625 42.671875 17.703125 53.65625 
Q 14.5 64.65625 8.015625 75.875 
z
" id="DejaVuSans-41"/>
      </defs>
      <use xlink:href="#DejaVuSans-67"/>
      <use x="69.824219" xlink:href="#DejaVuSans-117"/>
      <use x="133.203125" xlink:href="#DejaVuSans-109"/>
      <use x="230.615234" xlink:href="#DejaVuSans-117"/>
      <use x="293.994141" xlink:href="#DejaVuSans-108"/>
      <use x="321.777344" xlink:href="#DejaVuSans-97"/>
      <use x="383.056641" xlink:href="#DejaVuSans-116"/>
      <use x="422.265625" xlink:href="#DejaVuSans-105"/>
      <use x="450.048828" xlink:href="#DejaVuSans-118"/>
      <use x="509.228516" xlink:href="#DejaVuSans-101"/>
      <use x="570.751953" xlink:href="#DejaVuSans-32"/>
      <use x="602.539062" xlink:href="#DejaVuSans-99"/>
      <use x="657.519531" xlink:href="#DejaVuSans-111"/>
      <use x="718.701172" xlink:href="#DejaVuSans-118"/>
      <use x="777.880859" xlink:href="#DejaVuSans-101"/>
      <use x="839.404297" xlink:href="#DejaVuSans-114"/>
      <use x="880.517578" xlink:href="#DejaVuSans-97"/>
      <use x="941.796875" xlink:href="#DejaVuSans-103"/>
      <use x="1005.273438" xlink:href="#DejaVuSans-101"/>
      <use x="1066.796875" xlink:href="#DejaVuSans-32"/>
      <use x="1098.583984" xlink:href="#DejaVuSans-40"/>
      <use x="1137.597656" xlink:href="#DejaVuSans-110"/>
      <use x="1200.976562" xlink:href="#DejaVuSans-111"/>
      <use x="1262.158203" xlink:href="#DejaVuSans-114"/>
      <use x="1301.521484" xlink:href="#DejaVuSans-109"/>
      <use x="1398.933594" xlink:href="#DejaVuSans-97"/>
      <use x="1460.212891" xlink:href="#DejaVuSans-108"/>
      <use x="1487.996094" xlink:href="#DejaVuSans-105"/>
      <use x="1515.779297" xlink:href="#DejaVuSans-122"/>
      <use x="1568.269531" xlink:href="#DejaVuSans-101"/>
      <use x="1629.792969" xlink:href="#DejaVuSans-100"/>
      <use x="1693.269531" xlink:href="#DejaVuSans-32"/>
      <use x="1725.056641" xlink:href="#DejaVuSans-116"/>
      <use x="1764.265625" xlink:href="#DejaVuSans-111"/>
      <use x="1825.447266" xlink:href="#DejaVuSans-32"/>
      <use x="1857.234375" xlink:href="#DejaVuSans-49"/>
      <use x="1920.857422" xlink:href="#DejaVuSans-41"/>
     </g>
    </g>
   </g>
   <g id="matplotlib.axis_2">
    <g id="ytick_1">
     <g id="line2d_8">
      <defs>
       <path d="M 0 0 
L -3.5 0 
" id="mce54e82f5c" style="stroke:#000000;stroke-width:0.8;"/>
      </defs>
      <g>
       <use style="stroke:#000000;stroke-width:0.8;" x="57.6" xlink:href="#mce54e82f5c" y="295.488"/>
      </g>
     </g>
     <g id="text_8">
      <!-- 0 -->
      <g transform="translate(44.2375 299.287219)scale(0.1 -0.1)">
       <use xlink:href="#DejaVuSans-48"/>
      </g>
     </g>
    </g>
    <g id="ytick_2">
     <g id="line2d_9">
      <g>
       <use style="stroke:#000000;stroke-width:0.8;" x="57.6" xlink:href="#mce54e82f5c" y="247.439761"/>
      </g>
     </g>
     <g id="text_9">
      <!-- 100000 -->
      <g transform="translate(12.425 251.23898)scale(0.1 -0.1)">
       <use xlink:href="#DejaVuSans-49"/>
       <use x="63.623047" xlink:href="#DejaVuSans-48"/>
       <use x="127.246094" xlink:href="#DejaVuSans-48"/>
       <use x="190.869141" xlink:href="#DejaVuSans-48"/>
       <use x="254.492188" xlink:href="#DejaVuSans-48"/>
       <use x="318.115234" xlink:href="#DejaVuSans-48"/>
      </g>
     </g>
    </g>
    <g id="ytick_3">
     <g id="line2d_10">
      <g>
       <use style="stroke:#000000;stroke-width:0.8;" x="57.6" xlink:href="#mce54e82f5c" y="199.391522"/>
      </g>
     </g>
     <g id="text_10">
      <!-- 200000 -->
      <g transform="translate(12.425 203.190741)scale(0.1 -0.1)">
       <use xlink:href="#DejaVuSans-50"/>
       <use x="63.623047" xlink:href="#DejaVuSans-48"/>
       <use x="127.246094" xlink:href="#DejaVuSans-48"/>
       <use x="190.869141" xlink:href="#DejaVuSans-48"/>
       <use x="254.492188" xlink:href="#DejaVuSans-48"/>
       <use x="318.115234" xlink:href="#DejaVuSans-48"/>
      </g>
     </g>
    </g>
    <g id="ytick_4">
     <g id="line2d_11">
      <g>
       <use style="stroke:#000000;stroke-width:0.8;" x="57.6" xlink:href="#mce54e82f5c" y="151.343283"/>
      </g>
     </g>
     <g id="text_11">
      <!-- 300000 -->
      <g transform="translate(12.425 155.142502)scale(0.1 -0.1)">
       <defs>
        <path d="M 40.578125 39.3125 
Q 47.65625 37.796875 51.625 33 
Q 55.609375 28.21875 55.609375 21.1875 
Q 55.609375 10.40625 48.1875 4.484375 
Q 40.765625 -1.421875 27.09375 -1.421875 
Q 22.515625 -1.421875 17.65625 -0.515625 
Q 12.796875 0.390625 7.625 2.203125 
L 7.625 11.71875 
Q 11.71875 9.328125 16.59375 8.109375 
Q 21.484375 6.890625 26.8125 6.890625 
Q 36.078125 6.890625 40.9375 10.546875 
Q 45.796875 14.203125 45.796875 21.1875 
Q 45.796875 27.640625 41.28125 31.265625 
Q 36.765625 34.90625 28.71875 34.90625 
L 20.21875 34.90625 
L 20.21875 43.015625 
L 29.109375 43.015625 
Q 36.375 43.015625 40.234375 45.921875 
Q 44.09375 48.828125 44.09375 54.296875 
Q 44.09375 59.90625 40.109375 62.90625 
Q 36.140625 65.921875 28.71875 65.921875 
Q 24.65625 65.921875 20.015625 65.03125 
Q 15.375 64.15625 9.8125 62.3125 
L 9.8125 71.09375 
Q 15.4375 72.65625 20.34375 73.4375 
Q 25.25 74.21875 29.59375 74.21875 
Q 40.828125 74.21875 47.359375 69.109375 
Q 53.90625 64.015625 53.90625 55.328125 
Q 53.90625 49.265625 50.4375 45.09375 
Q 46.96875 40.921875 40.578125 39.3125 
z
" id="DejaVuSans-51"/>
       </defs>
       <use xlink:href="#DejaVuSans-51"/>
       <use x="63.623047" xlink:href="#DejaVuSans-48"/>
       <use x="127.246094" xlink:href="#DejaVuSans-48"/>
       <use x="190.869141" xlink:href="#DejaVuSans-48"/>
       <use x="254.492188" xlink:href="#DejaVuSans-48"/>
       <use x="318.115234" xlink:href="#DejaVuSans-48"/>
      </g>
     </g>
    </g>
    <g id="ytick_5">
     <g id="line2d_12">
      <g>
       <use style="stroke:#000000;stroke-width:0.8;" x="57.6" xlink:href="#mce54e82f5c" y="103.295044"/>
      </g>
     </g>
     <g id="text_12">
      <!-- 400000 -->
      <g transform="translate(12.425 107.094263)scale(0.1 -0.1)">
       <use xlink:href="#DejaVuSans-52"/>
       <use x="63.623047" xlink:href="#DejaVuSans-48"/>
       <use x="127.246094" xlink:href="#DejaVuSans-48"/>
       <use x="190.869141" xlink:href="#DejaVuSans-48"/>
       <use x="254.492188" xlink:href="#DejaVuSans-48"/>
       <use x="318.115234" xlink:href="#DejaVuSans-48"/>
      </g>
     </g>
    </g>
    <g id="ytick_6">
     <g id="line2d_13">
      <g>
       <use style="stroke:#000000;stroke-width:0.8;" x="57.6" xlink:href="#mce54e82f5c" y="55.246805"/>
      </g>
     </g>
     <g id="text_13">
      <!-- 500000 -->
      <g transform="translate(12.425 59.046024)scale(0.1 -0.1)">
       <defs>
        <path d="M 10.796875 72.90625 
L 49.515625 72.90625 
L 49.515625 64.59375 
L 19.828125 64.59375 
L 19.828125 46.734375 
Q 21.96875 47.46875 24.109375 47.828125 
Q 26.265625 48.1875 28.421875 48.1875 
Q 40.625 48.1875 47.75 41.5 
Q 54.890625 34.8125 54.890625 23.390625 
Q 54.890625 11.625 47.5625 5.09375 
Q 40.234375 -1.421875 26.90625 -1.421875 
Q 22.3125 -1.421875 17.546875 -0.640625 
Q 12.796875 0.140625 7.71875 1.703125 
L 7.71875 11.625 
Q 12.109375 9.234375 16.796875 8.0625 
Q 21.484375 6.890625 26.703125 6.890625 
Q 35.15625 6.890625 40.078125 11.328125 
Q 45.015625 15.765625 45.015625 23.390625 
Q 45.015625 31 40.078125 35.4375 
Q 35.15625 39.890625 26.703125 39.890625 
Q 22.75 39.890625 18.8125 39.015625 
Q 14.890625 38.140625 10.796875 36.28125 
z
" id="DejaVuSans-53"/>
       </defs>
       <use xlink:href="#DejaVuSans-53"/>
       <use x="63.623047" xlink:href="#DejaVuSans-48"/>
       <use x="127.246094" xlink:href="#DejaVuSans-48"/>
       <use x="190.869141" xlink:href="#DejaVuSans-48"/>
       <use x="254.492188" xlink:href="#DejaVuSans-48"/>
       <use x="318.115234" xlink:href="#DejaVuSans-48"/>
      </g>
     </g>
    </g>
    <g id="text_14">
     <!-- Length -->
     <g transform="translate(6.345312 191.774875)rotate(-90)scale(0.1 -0.1)">
      <defs>
       <path d="M 9.8125 72.90625 
L 19.671875 72.90625 
L 19.671875 8.296875 
L 55.171875 8.296875 
L 55.171875 0 
L 9.8125 0 
z
" id="DejaVuSans-76"/>
       <path d="M 54.890625 33.015625 
L 54.890625 0 
L 45.90625 0 
L 45.90625 32.71875 
Q 45.90625 40.484375 42.875 44.328125 
Q 39.84375 48.1875 33.796875 48.1875 
Q 26.515625 48.1875 22.3125 43.546875 
Q 18.109375 38.921875 18.109375 30.90625 
L 18.109375 0 
L 9.078125 0 
L 9.078125 75.984375 
L 18.109375 75.984375 
L 18.109375 46.1875 
Q 21.34375 51.125 25.703125 53.5625 
Q 30.078125 56 35.796875 56 
Q 45.21875 56 50.046875 50.171875 
Q 54.890625 44.34375 54.890625 33.015625 
z
" id="DejaVuSans-104"/>
      </defs>
      <use xlink:href="#DejaVuSans-76"/>
      <use x="53.962891" xlink:href="#DejaVuSans-101"/>
      <use x="115.486328" xlink:href="#DejaVuSans-110"/>
      <use x="178.865234" xlink:href="#DejaVuSans-103"/>
      <use x="242.341797" xlink:href="#DejaVuSans-116"/>
      <use x="281.550781" xlink:href="#DejaVuSans-104"/>
     </g>
    </g>
   </g>
   <g id="line2d_14">
    <path clip-path="url(#pf0acb50f9e)" d="M 57.6 295.48752 
L 57.931994 295.376528 
L 57.931994 295.376528 
L 58.042818 295.327038 
L 58.043102 295.327038 
L 58.552261 295.216047 
L 58.552261 295.216047 
L 58.662843 295.194906 
L 58.663368 295.194906 
L 59.295411 295.083914 
L 59.295411 295.083914 
L 59.404933 295.065656 
L 59.406517 295.065656 
L 60.215866 294.954665 
L 60.215866 294.954665 
L 60.324651 294.940731 
L 60.326975 294.940731 
L 61.275633 294.829739 
L 61.275633 294.829739 
L 61.384445 294.817247 
L 61.38674 294.817247 
L 62.42019 294.706255 
L 62.42019 294.706255 
L 62.529318 294.694243 
L 62.531289 294.694243 
L 63.6178 294.583252 
L 63.6178 294.583252 
L 63.728363 294.57172 
L 63.728894 294.57172 
L 64.870798 294.460729 
L 64.870798 294.460729 
L 64.981648 294.449678 
L 64.981905 294.449678 
L 66.164774 294.338686 
L 66.164774 294.338686 
L 66.272485 294.328116 
L 66.275877 294.328116 
L 67.471049 294.217124 
L 67.471049 294.217124 
L 67.579362 294.206553 
L 67.582154 294.206553 
L 68.801295 294.095562 
L 68.801295 294.095562 
L 68.909034 294.085472 
L 68.912399 294.085472 
L 70.139835 293.97448 
L 70.139835 293.97448 
L 70.246187 293.96439 
L 70.250936 293.96439 
L 71.483664 293.853399 
L 71.483664 293.853399 
L 71.594258 293.842828 
L 71.594757 293.842828 
L 72.846166 293.731837 
L 72.846166 293.731837 
L 72.954405 293.721747 
L 72.95723 293.721747 
L 74.214383 293.610755 
L 74.214383 293.610755 
L 74.321963 293.600665 
L 74.325451 293.600665 
L 75.598883 293.489674 
L 75.598883 293.489674 
L 75.708005 293.480064 
L 75.709944 293.480064 
L 76.984692 293.369073 
L 76.984692 293.369073 
L 77.094073 293.358983 
L 77.095776 293.358983 
L 78.390444 293.247991 
L 78.390444 293.247991 
L 78.497901 293.23742 
L 78.501501 293.23742 
L 79.812025 293.126429 
L 79.812025 293.126429 
L 79.919267 293.116819 
L 79.923126 293.116819 
L 81.226847 293.005828 
L 81.226847 293.005828 
L 81.33702 292.996218 
L 81.337913 292.996218 
L 82.647957 292.885227 
L 82.647957 292.885227 
L 82.756782 292.875617 
L 82.759016 292.875617 
L 84.058144 292.764626 
L 84.058144 292.764626 
L 84.16598 292.755016 
L 84.169222 292.755016 
L 85.453401 292.644025 
L 85.453401 292.644025 
L 85.559887 292.633935 
L 85.564454 292.633935 
L 86.849701 292.522943 
L 86.849701 292.522943 
L 86.956281 292.513334 
L 86.960794 292.513334 
L 88.247951 292.402342 
L 88.247951 292.402342 
L 88.358271 292.392252 
L 88.35904 292.392252 
L 89.631236 292.281261 
L 89.631236 292.281261 
L 89.741182 292.27117 
L 89.742336 292.27117 
L 90.993498 292.160179 
L 90.993498 292.160179 
L 91.100498 292.150569 
L 91.104549 292.150569 
L 92.370188 292.039578 
L 92.370188 292.039578 
L 92.47974 292.029488 
L 92.481266 292.029488 
L 93.715779 291.918496 
L 93.715779 291.918496 
L 93.822364 291.908406 
L 93.826807 291.908406 
L 95.02363 291.797415 
L 95.02363 291.797415 
L 95.131295 291.786364 
L 95.134665 291.786364 
L 96.327518 291.675372 
L 96.327518 291.675372 
L 96.434302 291.665282 
L 96.438625 291.665282 
L 97.592535 291.554291 
L 97.592535 291.554291 
L 97.703371 291.542759 
L 97.703588 291.542759 
L 98.804691 291.431768 
L 98.804691 291.431768 
L 98.914496 291.420236 
L 98.91573 291.420236 
L 100.006713 291.309245 
L 100.006713 291.309245 
L 100.114753 291.297713 
L 100.117758 291.297713 
L 101.172258 291.186722 
L 101.172258 291.186722 
L 101.280739 291.174229 
L 101.283356 291.174229 
L 102.316286 291.063238 
L 102.316286 291.063238 
L 102.425789 291.051226 
L 102.42738 291.051226 
L 103.445766 290.940234 
L 103.445766 290.940234 
L 103.553921 290.928222 
L 103.556814 290.928222 
L 104.573417 290.817231 
L 104.573417 290.817231 
L 104.681537 290.804258 
L 104.684508 290.804258 
L 105.689246 290.693266 
L 105.689246 290.693266 
L 105.799303 290.680293 
L 105.800231 290.680293 
L 106.778798 290.569302 
L 106.778798 290.569302 
L 106.886531 290.556809 
L 106.889795 290.556809 
L 107.861835 290.445818 
L 107.861835 290.445818 
L 107.971293 290.433325 
L 107.972827 290.433325 
L 108.952438 290.322334 
L 108.952438 290.322334 
L 109.063157 290.3084 
L 109.063443 290.3084 
L 110.030389 290.197408 
L 110.030389 290.197408 
L 110.139392 290.184435 
L 110.14144 290.184435 
L 111.126201 290.073444 
L 111.126201 290.073444 
L 111.236563 290.060471 
L 111.237311 290.060471 
L 112.204522 289.94948 
L 112.204522 289.94948 
L 112.31204 289.936987 
L 112.315562 289.936987 
L 113.303945 289.825996 
L 113.303945 289.825996 
L 113.411992 289.812542 
L 113.414967 289.812542 
L 114.351566 289.701551 
L 114.351566 289.701551 
L 114.458789 289.688097 
L 114.462629 289.688097 
L 115.415097 289.577106 
L 115.415097 289.577106 
L 115.523802 289.564133 
L 115.526089 289.564133 
L 116.472508 289.453141 
L 116.472508 289.453141 
L 116.578489 289.440649 
L 116.583493 289.440649 
L 117.527192 289.329657 
L 117.527192 289.329657 
L 117.637048 289.316684 
L 117.63824 289.316684 
L 118.576482 289.205693 
L 118.576482 289.205693 
L 118.686642 289.192239 
L 118.687511 289.192239 
L 119.592473 289.081248 
L 119.592473 289.081248 
L 119.70269 289.067794 
L 119.703576 289.067794 
L 120.617574 288.956803 
L 120.617574 288.956803 
L 120.728131 288.942869 
L 120.728672 288.942869 
L 121.637431 288.831877 
L 121.637431 288.831877 
L 121.746785 288.817943 
L 121.74844 288.817943 
L 122.645609 288.706952 
L 122.645609 288.706952 
L 122.755332 288.693018 
L 122.756644 288.693018 
L 123.650071 288.582027 
L 123.650071 288.582027 
L 123.759536 288.567132 
L 123.761064 288.567132 
L 124.64432 288.45614 
L 124.64432 288.45614 
L 124.75343 288.442687 
L 124.755373 288.442687 
L 125.639344 288.331695 
L 125.639344 288.331695 
L 125.746833 288.317281 
L 125.750393 288.317281 
L 126.614438 288.206289 
L 126.614438 288.206289 
L 126.722004 288.192836 
L 126.725425 288.192836 
L 127.57399 288.081844 
L 127.57399 288.081844 
L 127.684012 288.066469 
L 127.685035 288.066469 
L 128.515718 287.955478 
L 128.515718 287.955478 
L 128.623657 287.941544 
L 128.626779 287.941544 
L 129.495786 287.830552 
L 129.495786 287.830552 
L 129.606358 287.816618 
L 129.606781 287.816618 
L 130.446745 287.705627 
L 130.446745 287.705627 
L 130.557195 287.690251 
L 130.55784 287.690251 
L 131.385182 287.57926 
L 131.385182 287.57926 
L 131.492836 287.564365 
L 131.496114 287.564365 
L 132.317922 287.453373 
L 132.317922 287.453373 
L 132.428841 287.437998 
L 132.428841 287.437998 
L 133.280211 287.327007 
L 133.280211 287.327007 
L 133.388369 287.311631 
L 133.391301 287.311631 
L 134.188563 287.20064 
L 134.188563 287.20064 
L 134.298621 287.184784 
L 134.299538 287.184784 
L 135.107883 287.073792 
L 135.107883 287.073792 
L 135.218233 287.058417 
L 135.21893 287.058417 
L 136.029588 286.947426 
L 136.029588 286.947426 
L 136.13947 286.93157 
L 136.140651 286.93157 
L 136.949702 286.820578 
L 136.949702 286.820578 
L 137.058344 286.804242 
L 137.06074 286.804242 
L 137.861995 286.69325 
L 137.861995 286.69325 
L 137.972721 286.676433 
L 137.972964 286.676433 
L 138.76332 286.565442 
L 138.76332 286.565442 
L 138.872696 286.549586 
L 138.874422 286.549586 
L 139.664534 286.438595 
L 139.664534 286.438595 
L 139.773219 286.421778 
L 139.77547 286.421778 
L 140.565002 286.310786 
L 140.565002 286.310786 
L 140.673692 286.29493 
L 140.675974 286.29493 
L 141.472141 286.183939 
L 141.472141 286.183939 
L 141.580547 286.166642 
L 141.583118 286.166642 
L 142.355162 286.05565 
L 142.355162 286.05565 
L 142.462708 286.040275 
L 142.466096 286.040275 
L 143.255184 285.929283 
L 143.255184 285.929283 
L 143.365764 285.911506 
L 143.366292 285.911506 
L 144.12825 285.800514 
L 144.12825 285.800514 
L 144.237898 285.785139 
L 144.239237 285.785139 
L 144.981858 285.674147 
L 144.981858 285.674147 
L 145.091859 285.65733 
L 145.092943 285.65733 
L 145.875517 285.546339 
L 145.875517 285.546339 
L 145.983652 285.530963 
L 145.986399 285.530963 
L 146.735959 285.419972 
L 146.735959 285.419972 
L 146.84241 285.403155 
L 146.846861 285.403155 
L 147.629486 285.292164 
L 147.629486 285.292164 
L 147.740386 285.275827 
L 147.740386 285.275827 
L 148.482979 285.164836 
L 148.482979 285.164836 
L 148.593265 285.14898 
L 148.593836 285.14898 
L 149.322087 285.037989 
L 149.322087 285.037989 
L 149.430267 285.021652 
L 149.433154 285.021652 
L 150.151835 284.910661 
L 150.151835 284.910661 
L 150.26279 284.894324 
L 150.26279 284.894324 
L 150.991061 284.783333 
L 150.991061 284.783333 
L 151.099215 284.766996 
L 151.101877 284.766996 
L 151.838485 284.656005 
L 151.838485 284.656005 
L 151.946739 284.637747 
L 151.949432 284.637747 
L 152.659398 284.526755 
L 152.659398 284.526755 
L 152.768633 284.509458 
L 152.77045 284.509458 
L 153.495165 284.398466 
L 153.495165 284.398466 
L 153.60569 284.380208 
L 153.605996 284.380208 
L 154.328615 284.269217 
L 154.328615 284.269217 
L 154.436703 284.251439 
L 154.439493 284.251439 
L 155.169041 284.140447 
L 155.169041 284.140447 
L 155.277739 284.122189 
L 155.279934 284.122189 
L 155.970154 284.011198 
L 155.970154 284.011198 
L 156.080736 283.990537 
L 156.081054 283.990537 
L 156.809267 283.879545 
L 156.809267 283.879545 
L 156.918222 283.862248 
L 156.920146 283.862248 
L 157.63319 283.751257 
L 157.63319 283.751257 
L 157.743991 283.73444 
L 157.743991 283.73444 
L 158.446265 283.623448 
L 158.446265 283.623448 
L 158.555006 283.60471 
L 158.557301 283.60471 
L 159.266971 283.493718 
L 159.266971 283.493718 
L 159.375234 283.47594 
L 159.377885 283.47594 
L 160.093514 283.364949 
L 160.093514 283.364949 
L 160.203284 283.34621 
L 160.204624 283.34621 
L 160.912466 283.235219 
L 160.912466 283.235219 
L 161.022733 283.215999 
L 161.02341 283.215999 
L 161.716091 283.105008 
L 161.716091 283.105008 
L 161.823429 283.08675 
L 161.827192 283.08675 
L 162.503124 282.975758 
L 162.503124 282.975758 
L 162.610539 282.95798 
L 162.613996 282.95798 
L 163.283674 282.846989 
L 163.283674 282.846989 
L 163.393244 282.829691 
L 163.39464 282.829691 
L 164.082334 282.7187 
L 164.082334 282.7187 
L 164.189487 282.700442 
L 164.193367 282.700442 
L 164.899798 282.58945 
L 164.899798 282.58945 
L 165.009115 282.56975 
L 165.010897 282.56975 
L 165.699532 282.458759 
L 165.699532 282.458759 
L 165.807789 282.440501 
L 165.810308 282.440501 
L 166.46201 282.329509 
L 166.46201 282.329509 
L 166.571705 282.31077 
L 166.572795 282.31077 
L 167.27617 282.199779 
L 167.27617 282.199779 
L 167.384747 282.180079 
L 167.38695 282.180079 
L 168.110525 282.069088 
L 168.110525 282.069088 
L 168.219052 282.05131 
L 168.221276 282.05131 
L 168.933263 281.940319 
L 168.933263 281.940319 
L 169.04358 281.920138 
L 169.044329 281.920138 
L 169.730152 281.809147 
L 169.730152 281.809147 
L 169.841172 281.788486 
L 169.841172 281.788486 
L 170.512669 281.677495 
L 170.512669 281.677495 
L 170.623219 281.658275 
L 170.6236 281.658275 
L 171.320627 281.547284 
L 171.320627 281.547284 
L 171.429525 281.529026 
L 171.43145 281.529026 
L 172.104518 281.418034 
L 172.104518 281.418034 
L 172.215206 281.398815 
L 172.215595 281.398815 
L 172.872219 281.287823 
L 172.872219 281.287823 
L 172.983145 281.269565 
L 172.983145 281.269565 
L 173.650157 281.158574 
L 173.650157 281.158574 
L 173.759706 281.142718 
L 173.760893 281.142718 
L 174.450067 281.031726 
L 174.450067 281.031726 
L 174.558202 281.012988 
L 174.560997 281.012988 
L 175.217932 280.901996 
L 175.217932 280.901996 
L 175.325416 280.88566 
L 175.329041 280.88566 
L 175.982783 280.774668 
L 175.982783 280.774668 
L 176.093246 280.754969 
L 176.093652 280.754969 
L 176.743081 280.643977 
L 176.743081 280.643977 
L 176.853285 280.627641 
L 176.854104 280.627641 
L 177.512854 280.516649 
L 177.512854 280.516649 
L 177.623183 280.498391 
L 177.623597 280.498391 
L 178.282675 280.387399 
L 178.282675 280.387399 
L 178.39187 280.369622 
L 178.393538 280.369622 
L 179.094197 280.25863 
L 179.094197 280.25863 
L 179.203486 280.239411 
L 179.205168 280.239411 
L 179.860731 280.128419 
L 179.860731 280.128419 
L 179.967571 280.108239 
L 179.971813 280.108239 
L 180.65092 279.997248 
L 180.65092 279.997248 
L 180.761657 279.978028 
L 180.761657 279.978028 
L 181.414662 279.867037 
L 181.414662 279.867037 
L 181.523309 279.848298 
L 181.525466 279.848298 
L 182.16147 279.737307 
L 182.16147 279.737307 
L 182.272329 279.717607 
L 182.272329 279.717607 
L 182.926283 279.606616 
L 182.926283 279.606616 
L 183.035434 279.586435 
L 183.037188 279.586435 
L 183.713719 279.475444 
L 183.713719 279.475444 
L 183.824208 279.457186 
L 183.82465 279.457186 
L 184.47426 279.346194 
L 184.47426 279.346194 
L 184.585207 279.324572 
L 184.585207 279.324572 
L 185.263002 279.213581 
L 185.263002 279.213581 
L 185.373053 279.193401 
L 185.373952 279.193401 
L 186.01392 279.082409 
L 186.01392 279.082409 
L 186.124399 279.06367 
L 186.124852 279.06367 
L 186.762684 278.952679 
L 186.762684 278.952679 
L 186.873584 278.93346 
L 186.873584 278.93346 
L 187.561273 278.822468 
L 187.561273 278.822468 
L 187.670284 278.803249 
L 187.672125 278.803249 
L 188.319481 278.692258 
L 188.319481 278.692258 
L 188.427031 278.673038 
L 188.430278 278.673038 
L 189.063118 278.562047 
L 189.063118 278.562047 
L 189.170095 278.541867 
L 189.173834 278.541867 
L 189.841166 278.430875 
L 189.841166 278.430875 
L 189.951802 278.410214 
L 189.952273 278.410214 
L 190.59502 278.299223 
L 190.59502 278.299223 
L 190.703185 278.280484 
L 190.706033 278.280484 
L 191.371293 278.169493 
L 191.371293 278.169493 
L 191.481705 278.150754 
L 191.482183 278.150754 
L 192.113062 278.039763 
L 192.113062 278.039763 
L 192.221897 278.019582 
L 192.223825 278.019582 
L 192.919879 277.908591 
L 192.919879 277.908591 
L 193.030009 277.890813 
L 193.03098 277.890813 
L 193.677117 277.779822 
L 193.677117 277.779822 
L 193.786588 277.761083 
L 193.788055 277.761083 
L 194.425249 277.650091 
L 194.425249 277.650091 
L 194.533065 277.62895 
L 194.53602 277.62895 
L 195.179996 277.517959 
L 195.179996 277.517959 
L 195.290599 277.497778 
L 195.291095 277.497778 
L 195.939682 277.386787 
L 195.939682 277.386787 
L 196.049089 277.366607 
L 196.050589 277.366607 
L 196.723422 277.255615 
L 196.723422 277.255615 
L 196.831604 277.238318 
L 196.834121 277.238318 
L 197.501625 277.127326 
L 197.501625 277.127326 
L 197.611076 277.108588 
L 197.612597 277.108588 
L 198.251242 276.997596 
L 198.251242 276.997596 
L 198.356872 276.979338 
L 198.361978 276.979338 
L 199.007207 276.868346 
L 199.007207 276.868346 
L 199.116142 276.850569 
L 199.118199 276.850569 
L 199.720501 276.739577 
L 199.720501 276.739577 
L 199.830717 276.719397 
L 199.831235 276.719397 
L 200.488032 276.608405 
L 200.488032 276.608405 
L 200.598493 276.589667 
L 200.599014 276.589667 
L 201.249445 276.478675 
L 201.249445 276.478675 
L 201.359614 276.459456 
L 201.360139 276.459456 
L 202.053892 276.348465 
L 202.053892 276.348465 
L 202.16481 276.330687 
L 202.16481 276.330687 
L 202.833632 276.219695 
L 202.833632 276.219695 
L 202.943179 276.199515 
L 202.944243 276.199515 
L 203.605897 276.088524 
L 203.605897 276.088524 
L 203.71672 276.069785 
L 203.71672 276.069785 
L 204.416114 275.958793 
L 204.416114 275.958793 
L 204.524995 275.93525 
L 204.527152 275.93525 
L 205.205935 275.824258 
L 205.205935 275.824258 
L 205.313925 275.805519 
L 205.316639 275.805519 
L 205.979777 275.694528 
L 205.979777 275.694528 
L 206.089579 275.673387 
L 206.090672 275.673387 
L 206.729202 275.562395 
L 206.729202 275.562395 
L 206.839184 275.541254 
L 206.840285 275.541254 
L 207.477016 275.430263 
L 207.477016 275.430263 
L 207.584405 275.410563 
L 207.587728 275.410563 
L 208.218595 275.299571 
L 208.218595 275.299571 
L 208.329474 275.27843 
L 208.329474 275.27843 
L 209.00139 275.167439 
L 209.00139 275.167439 
L 209.112429 275.146298 
L 209.112429 275.146298 
L 209.736984 275.035306 
L 209.736984 275.035306 
L 209.847049 275.017048 
L 209.847613 275.017048 
L 210.470425 274.906056 
L 210.470425 274.906056 
L 210.580619 274.886357 
L 210.581187 274.886357 
L 211.246195 274.775365 
L 211.246195 274.775365 
L 211.357086 274.756626 
L 211.357086 274.756626 
L 212.033643 274.645635 
L 212.033643 274.645635 
L 212.144085 274.623533 
L 212.14466 274.623533 
L 212.788068 274.512541 
L 212.788068 274.512541 
L 212.898629 274.493322 
L 212.898629 274.493322 
L 213.546098 274.382331 
L 213.546098 274.382331 
L 213.656758 274.364553 
L 213.656758 274.364553 
L 214.290086 274.253561 
L 214.290086 274.253561 
L 214.398491 274.235783 
L 214.400836 274.235783 
L 215.069674 274.124792 
L 215.069674 274.124792 
L 215.178147 274.107495 
L 215.180506 274.107495 
L 215.814374 273.996503 
L 215.814374 273.996503 
L 215.925277 273.979206 
L 215.925277 273.979206 
L 216.556402 273.868214 
L 216.556402 273.868214 
L 216.667375 273.849476 
L 216.667375 273.849476 
L 217.343495 273.738484 
L 217.343495 273.738484 
L 217.454532 273.719745 
L 217.454532 273.719745 
L 218.10465 273.608754 
L 218.10465 273.608754 
L 218.212731 273.589054 
L 218.215751 273.589054 
L 218.890962 273.478063 
L 218.890962 273.478063 
L 219.001518 273.455961 
L 219.001518 273.455961 
L 219.675357 273.344969 
L 219.675357 273.344969 
L 219.78535 273.324789 
L 219.785961 273.324789 
L 220.41724 273.213797 
L 220.41724 273.213797 
L 220.52666 273.192176 
L 220.52789 273.192176 
L 221.153647 273.081184 
L 221.153647 273.081184 
L 221.262471 273.062926 
L 221.264327 273.062926 
L 221.927872 272.951935 
L 221.927872 272.951935 
L 222.037328 272.931754 
L 222.038572 272.931754 
L 222.666 272.820763 
L 222.666 272.820763 
L 222.776084 272.803946 
L 222.77671 272.803946 
L 223.459745 272.692954 
L 223.459745 272.692954 
L 223.568567 272.674216 
L 223.570455 272.674216 
L 224.251118 272.563224 
L 224.251118 272.563224 
L 224.361825 272.544485 
L 224.361825 272.544485 
L 225.03495 272.433494 
L 225.03495 272.433494 
L 225.143744 272.414275 
L 225.145653 272.414275 
L 225.779793 272.303283 
L 225.779793 272.303283 
L 225.88664 272.281662 
L 225.890481 272.281662 
L 226.490412 272.17067 
L 226.490412 272.17067 
L 226.597228 272.15049 
L 226.601091 272.15049 
L 227.24316 272.039498 
L 227.24316 272.039498 
L 227.353158 272.021721 
L 227.353805 272.021721 
L 228.005845 271.910729 
L 228.005845 271.910729 
L 228.114509 271.888627 
L 228.116462 271.888627 
L 228.710844 271.777636 
L 228.710844 271.777636 
L 228.818143 271.760338 
L 228.821415 271.760338 
L 229.512163 271.649347 
L 229.512163 271.649347 
L 229.622681 271.630127 
L 229.622681 271.630127 
L 230.246682 271.519136 
L 230.246682 271.519136 
L 230.357138 271.499917 
L 230.357138 271.499917 
L 230.976607 271.388925 
L 230.976607 271.388925 
L 231.086333 271.371147 
L 231.087663 271.371147 
L 231.695106 271.260156 
L 231.695106 271.260156 
L 231.806081 271.242859 
L 231.806081 271.242859 
L 232.473054 271.131867 
L 232.473054 271.131867 
L 232.58329 271.108804 
L 232.583963 271.108804 
L 233.223617 270.997813 
L 233.223617 270.997813 
L 233.334456 270.97523 
L 233.334456 270.97523 
L 233.966068 270.864239 
L 233.966068 270.864239 
L 234.075459 270.846941 
L 234.076819 270.846941 
L 234.713084 270.73595 
L 234.713084 270.73595 
L 234.820999 270.717691 
L 234.823732 270.717691 
L 235.466046 270.6067 
L 235.466046 270.6067 
L 235.576587 270.58652 
L 235.576587 270.58652 
L 236.232622 270.475528 
L 236.232622 270.475528 
L 236.339606 270.455348 
L 236.343058 270.455348 
L 236.973473 270.344357 
L 236.973473 270.344357 
L 237.079627 270.326098 
L 237.084486 270.326098 
L 237.734852 270.215107 
L 237.734852 270.215107 
L 237.842947 270.195888 
L 237.845738 270.195888 
L 238.475752 270.084896 
L 238.475752 270.084896 
L 238.586505 270.066157 
L 238.586505 270.066157 
L 239.229526 269.955166 
L 239.229526 269.955166 
L 239.338038 269.933544 
L 239.340152 269.933544 
L 240.013369 269.822553 
L 240.013369 269.822553 
L 240.123139 269.805255 
L 240.123847 269.805255 
L 240.778434 269.694264 
L 240.778434 269.694264 
L 240.88733 269.676486 
L 240.889466 269.676486 
L 241.577262 269.565495 
L 241.577262 269.565495 
L 241.688141 269.544353 
L 241.688141 269.544353 
L 242.319951 269.433362 
L 242.319951 269.433362 
L 242.425639 269.414623 
L 242.430673 269.414623 
L 243.034674 269.303632 
L 243.034674 269.303632 
L 243.144496 269.285373 
L 243.145219 269.285373 
L 243.788423 269.174382 
L 243.788423 269.174382 
L 243.897334 269.155643 
L 243.899513 269.155643 
L 244.556112 269.044652 
L 244.556112 269.044652 
L 244.666298 269.022069 
L 244.667028 269.022069 
L 245.320325 268.911078 
L 245.320325 268.911078 
L 245.429591 268.892819 
L 245.431058 268.892819 
L 246.058167 268.781828 
L 246.058167 268.781828 
L 246.168706 268.763089 
L 246.168706 268.763089 
L 246.768512 268.652098 
L 246.768512 268.652098 
L 246.878848 268.633359 
L 246.879588 268.633359 
L 247.525378 268.522367 
L 247.525378 268.522367 
L 247.636247 268.502187 
L 247.636247 268.502187 
L 248.282201 268.391196 
L 248.282201 268.391196 
L 248.392865 268.371015 
L 248.392865 268.371015 
L 249.04047 268.260024 
L 249.04047 268.260024 
L 249.150161 268.240805 
L 249.150913 268.240805 
L 249.810652 268.129813 
L 249.810652 268.129813 
L 249.920877 268.108192 
L 249.921632 268.108192 
L 250.546688 267.9972 
L 250.546688 267.9972 
L 250.657444 267.976539 
L 250.657444 267.976539 
L 251.327332 267.865548 
L 251.327332 267.865548 
L 251.437093 267.843926 
L 251.437856 267.843926 
L 252.077391 267.732935 
L 252.077391 267.732935 
L 252.186919 267.709391 
L 252.188451 267.709391 
L 252.85184 267.5984 
L 252.85184 267.5984 
L 252.95958 267.5787 
L 252.962659 267.5787 
L 253.583644 267.467709 
L 253.583644 267.467709 
L 253.691892 267.447528 
L 253.694212 267.447528 
L 254.325068 267.336537 
L 254.325068 267.336537 
L 254.434595 267.316357 
L 254.436149 267.316357 
L 255.069882 267.205365 
L 255.069882 267.205365 
L 255.180707 267.182782 
L 255.180707 267.182782 
L 255.822959 267.071791 
L 255.822959 267.071791 
L 255.933518 267.051611 
L 255.933518 267.051611 
L 256.559906 266.940619 
L 256.559906 266.940619 
L 256.67019 266.920439 
L 256.670978 266.920439 
L 257.265488 266.809448 
L 257.265488 266.809448 
L 257.375483 266.789267 
L 257.376274 266.789267 
L 258.001247 266.678276 
L 258.001247 266.678276 
L 258.111746 266.658096 
L 258.111746 266.658096 
L 258.745997 266.547104 
L 258.745997 266.547104 
L 258.856994 266.531248 
L 258.856994 266.531248 
L 259.511649 266.420257 
L 259.511649 266.420257 
L 259.619931 266.400077 
L 259.622338 266.400077 
L 260.246149 266.289085 
L 260.246149 266.289085 
L 260.354111 266.268424 
L 260.356529 266.268424 
L 260.997696 266.157433 
L 260.997696 266.157433 
L 261.108569 266.140136 
L 261.108569 266.140136 
L 261.711153 266.029144 
L 261.711153 266.029144 
L 261.81845 266.009925 
L 261.821703 266.009925 
L 262.442473 265.898934 
L 262.442473 265.898934 
L 262.552696 265.878273 
L 262.553513 265.878273 
L 263.234296 265.767281 
L 263.234296 265.767281 
L 263.344194 265.743257 
L 263.345014 265.743257 
L 263.966445 265.632746 
L 263.966445 265.632746 
L 264.076014 265.612086 
L 264.076838 265.612086 
L 264.672086 265.501094 
L 264.672086 265.501094 
L 264.782965 265.479472 
L 264.782965 265.479472 
L 265.401623 265.368961 
L 265.401623 265.368961 
L 265.510501 265.344937 
L 265.512164 265.344937 
L 266.106049 265.233946 
L 266.106049 265.233946 
L 266.212069 265.211844 
L 266.21708 265.211844 
L 266.818651 265.100852 
L 266.818651 265.100852 
L 266.928489 265.080672 
L 266.929327 265.080672 
L 267.538554 264.969681 
L 267.538554 264.969681 
L 267.645494 264.953825 
L 267.648863 264.953825 
L 268.256397 264.842833 
L 268.256397 264.842833 
L 268.367176 264.821692 
L 268.367176 264.821692 
L 268.93577 264.710701 
L 268.93577 264.710701 
L 269.046178 264.687637 
L 269.046178 264.687637 
L 269.655593 264.576646 
L 269.655593 264.576646 
L 269.766473 264.555985 
L 269.766473 264.555985 
L 270.341769 264.444994 
L 270.341769 264.444994 
L 270.451414 264.422892 
L 270.452271 264.422892 
L 271.058308 264.3119 
L 271.058308 264.3119 
L 271.169285 264.286915 
L 271.169285 264.286915 
L 271.796082 264.175924 
L 271.796082 264.175924 
L 271.904081 264.155743 
L 271.906674 264.155743 
L 272.519635 264.044752 
L 272.519635 264.044752 
L 272.627216 264.024091 
L 272.630688 264.024091 
L 273.238427 263.9131 
L 273.238427 263.9131 
L 273.348206 263.889556 
L 273.349078 263.889556 
L 273.937567 263.778565 
L 273.937567 263.778565 
L 274.046936 263.757424 
L 274.047811 263.757424 
L 274.627382 263.646432 
L 274.627382 263.646432 
L 274.738082 263.627693 
L 274.738082 263.627693 
L 275.365768 263.516702 
L 275.365768 263.516702 
L 275.476043 263.4946 
L 275.476043 263.4946 
L 276.048019 263.383608 
L 276.048019 263.383608 
L 276.157864 263.362947 
L 276.15875 263.362947 
L 276.722459 263.251956 
L 276.722459 263.251956 
L 276.829191 263.23562 
L 276.832749 263.23562 
L 277.395965 263.124628 
L 277.395965 263.124628 
L 277.504025 263.100124 
L 277.506706 263.100124 
L 278.164496 262.989132 
L 278.164496 262.989132 
L 278.273006 262.96703 
L 278.2748 262.96703 
L 278.868757 262.856039 
L 278.868757 262.856039 
L 278.977702 262.83778 
L 278.979503 262.83778 
L 279.572217 262.726789 
L 279.572217 262.726789 
L 279.679791 262.705648 
L 279.682504 262.705648 
L 280.284885 262.594656 
L 280.284885 262.594656 
L 280.3938 262.572073 
L 280.395616 262.572073 
L 280.949518 262.461082 
L 280.949518 262.461082 
L 281.059788 262.440421 
L 281.059788 262.440421 
L 281.647847 262.32943 
L 281.647847 262.32943 
L 281.75856 262.304925 
L 281.75856 262.304925 
L 282.357232 262.193934 
L 282.357232 262.193934 
L 282.467483 262.167027 
L 282.467483 262.167027 
L 283.053961 262.056516 
L 283.053961 262.056516 
L 283.161897 262.033453 
L 283.164666 262.033453 
L 283.819085 261.922461 
L 283.819085 261.922461 
L 283.929308 261.898437 
L 283.929308 261.898437 
L 284.494535 261.787446 
L 284.494535 261.787446 
L 284.603328 261.769668 
L 284.605188 261.769668 
L 285.207943 261.658676 
L 285.207943 261.658676 
L 285.318092 261.636094 
L 285.319025 261.636094 
L 285.881162 261.525102 
L 285.881162 261.525102 
L 285.990803 261.504922 
L 285.99174 261.504922 
L 286.538194 261.393931 
L 286.538194 261.393931 
L 286.645445 261.368465 
L 286.64921 261.368465 
L 287.214809 261.257474 
L 287.214809 261.257474 
L 287.325318 261.23441 
L 287.325318 261.23441 
L 287.910166 261.123419 
L 287.910166 261.123419 
L 288.019212 261.100836 
L 288.021109 261.100836 
L 288.588268 260.989845 
L 288.588268 260.989845 
L 288.697734 260.969184 
L 288.698686 260.969184 
L 289.268037 260.858193 
L 289.268037 260.858193 
L 289.376014 260.836091 
L 289.378882 260.836091 
L 289.920723 260.72606 
L 289.920723 260.72606 
L 290.031032 260.702997 
L 290.031032 260.702997 
L 290.567312 260.592006 
L 290.567312 260.592006 
L 290.67708 260.567981 
L 290.678043 260.567981 
L 291.249184 260.45699 
L 291.249184 260.45699 
L 291.35744 260.43729 
L 291.359374 260.43729 
L 291.887125 260.326299 
L 291.887125 260.326299 
L 291.996761 260.302755 
L 291.997731 260.302755 
L 292.564476 260.191764 
L 292.564476 260.191764 
L 292.673549 260.172064 
L 292.675498 260.172064 
L 293.250161 260.061072 
L 293.250161 260.061072 
L 293.360628 260.034646 
L 293.360628 260.034646 
L 293.913014 259.923655 
L 293.913014 259.923655 
L 294.023906 259.898189 
L 294.023906 259.898189 
L 294.59713 259.787678 
L 294.59713 259.787678 
L 294.707456 259.767017 
L 294.707456 259.767017 
L 295.242331 259.656026 
L 295.242331 259.656026 
L 295.353061 259.635365 
L 295.353061 259.635365 
L 295.91768 259.524374 
L 295.91768 259.524374 
L 296.026836 259.501791 
L 296.027829 259.501791 
L 296.589542 259.3908 
L 296.589542 259.3908 
L 296.699103 259.368697 
L 296.7001 259.368697 
L 297.278847 259.258186 
L 297.278847 259.258186 
L 297.389812 259.235123 
L 297.389812 259.235123 
L 297.926657 259.124132 
L 297.926657 259.124132 
L 298.037035 259.096264 
L 298.037035 259.096264 
L 298.593002 258.985272 
L 298.593002 258.985272 
L 298.697748 258.96269 
L 298.703793 258.96269 
L 299.22145 258.851698 
L 299.22145 258.851698 
L 299.33062 258.832479 
L 299.331631 258.832479 
L 299.856138 258.721968 
L 299.856138 258.721968 
L 299.966717 258.699866 
L 299.966717 258.699866 
L 300.523649 258.588874 
L 300.523649 258.588874 
L 300.629529 258.570616 
L 300.634621 258.570616 
L 301.217958 258.459625 
L 301.217958 258.459625 
L 301.328305 258.43464 
L 301.328305 258.43464 
L 301.858524 258.323648 
L 301.858524 258.323648 
L 301.968252 258.299144 
L 301.969278 258.299144 
L 302.495287 258.188152 
L 302.495287 258.188152 
L 302.604386 258.162687 
L 302.605416 258.162687 
L 303.123016 258.051695 
L 303.123016 258.051695 
L 303.233552 258.025269 
L 303.233552 258.025269 
L 303.799618 257.914277 
L 303.799618 257.914277 
L 303.910547 257.894097 
L 303.910547 257.894097 
L 304.418394 257.783105 
L 304.418394 257.783105 
L 304.528677 257.758601 
L 304.528677 257.758601 
L 305.019592 257.647609 
L 305.019592 257.647609 
L 305.130271 257.621663 
L 305.130271 257.621663 
L 305.677336 257.510672 
L 305.677336 257.510672 
L 305.787363 257.487609 
L 305.788412 257.487609 
L 306.303832 257.377098 
L 306.303832 257.377098 
L 306.4132 257.352593 
L 306.414252 257.352593 
L 306.935717 257.242082 
L 306.935717 257.242082 
L 307.044412 257.218539 
L 307.046523 257.218539 
L 307.580409 257.107547 
L 307.580409 257.107547 
L 307.689486 257.085926 
L 307.690545 257.085926 
L 308.216699 256.974934 
L 308.216699 256.974934 
L 308.32722 256.948988 
L 308.32722 256.948988 
L 308.860567 256.837997 
L 308.860567 256.837997 
L 308.970411 256.815894 
L 308.971478 256.815894 
L 309.483185 256.704903 
L 309.483185 256.704903 
L 309.588059 256.679437 
L 309.593412 256.679437 
L 310.115489 256.568446 
L 310.115489 256.568446 
L 310.225035 256.540098 
L 310.226109 256.540098 
L 310.710253 256.429106 
L 310.710253 256.429106 
L 310.819102 256.404121 
L 310.821258 256.404121 
L 311.324353 256.29313 
L 311.324353 256.29313 
L 311.434665 256.267664 
L 311.434665 256.267664 
L 311.928688 256.156673 
L 311.928688 256.156673 
L 312.035046 256.130727 
L 312.039388 256.130727 
L 312.577543 256.019735 
L 312.577543 256.019735 
L 312.688621 255.996191 
L 312.688621 255.996191 
L 313.172975 255.8852 
L 313.172975 255.8852 
L 313.283342 255.860215 
L 313.283342 255.860215 
L 313.785767 255.749704 
L 313.785767 255.749704 
L 313.896509 255.72568 
L 313.896509 255.72568 
L 314.410527 255.614688 
L 314.410527 255.614688 
L 314.519454 255.584418 
L 314.520555 255.584418 
L 315.006651 255.473427 
L 315.006651 255.473427 
L 315.11706 255.448922 
L 315.11706 255.448922 
L 315.629124 255.337931 
L 315.629124 255.337931 
L 315.739909 255.314867 
L 315.739909 255.314867 
L 316.247018 255.204357 
L 316.247018 255.204357 
L 316.35594 255.183215 
L 316.357052 255.183215 
L 316.850196 255.072224 
L 316.850196 255.072224 
L 316.9606 255.045797 
L 316.9606 255.045797 
L 317.457675 254.935286 
L 317.457675 254.935286 
L 317.565094 254.908379 
L 317.568452 254.908379 
L 318.042585 254.797388 
L 318.042585 254.797388 
L 318.150371 254.769039 
L 318.152618 254.769039 
L 318.631757 254.658048 
L 318.631757 254.658048 
L 318.741039 254.629219 
L 318.742166 254.629219 
L 319.205992 254.518228 
L 319.205992 254.518228 
L 319.316776 254.492762 
L 319.316776 254.492762 
L 319.813909 254.382251 
L 319.813909 254.382251 
L 319.92166 254.355825 
L 319.923929 254.355825 
L 320.397727 254.244833 
L 320.397727 254.244833 
L 320.508117 254.217926 
L 320.508117 254.217926 
L 320.972074 254.106935 
L 320.972074 254.106935 
L 321.081691 254.080508 
L 321.082833 254.080508 
L 321.55635 253.969517 
L 321.55635 253.969517 
L 321.66633 253.945493 
L 321.66633 253.945493 
L 322.123004 253.834501 
L 322.123004 253.834501 
L 322.229884 253.814321 
L 322.233333 253.814321 
L 322.716775 253.70333 
L 322.716775 253.70333 
L 322.826308 253.675942 
L 322.827462 253.675942 
L 323.282466 253.564951 
L 323.282466 253.564951 
L 323.393521 253.53468 
L 323.393521 253.53468 
L 323.86397 253.423689 
L 323.86397 253.423689 
L 323.973079 253.393418 
L 323.97424 253.393418 
L 324.460252 253.282427 
L 324.460252 253.282427 
L 324.570889 253.253118 
L 324.570889 253.253118 
L 325.049144 253.142126 
L 325.049144 253.142126 
L 325.160143 253.11618 
L 325.160143 253.11618 
L 325.637603 253.005189 
L 325.637603 253.005189 
L 325.747797 252.975879 
L 325.747797 252.975879 
L 326.213953 252.864888 
L 326.213953 252.864888 
L 326.323334 252.836539 
L 326.324511 252.836539 
L 326.808652 252.725548 
L 326.808652 252.725548 
L 326.919567 252.700563 
L 326.919567 252.700563 
L 327.337934 252.590052 
L 327.337934 252.590052 
L 327.445647 252.565547 
L 327.448015 252.565547 
L 327.899695 252.454556 
L 327.899695 252.454556 
L 328.010131 252.425727 
L 328.010131 252.425727 
L 328.449018 252.314735 
L 328.449018 252.314735 
L 328.559807 252.288309 
L 328.559807 252.288309 
L 329.006067 252.177317 
L 329.006067 252.177317 
L 329.114813 252.152813 
L 329.116009 252.152813 
L 329.595975 252.042302 
L 329.595975 252.042302 
L 329.702664 252.017797 
L 329.706261 252.017797 
L 330.136055 251.906806 
L 330.136055 251.906806 
L 330.246688 251.877496 
L 330.246688 251.877496 
L 330.688751 251.766985 
L 330.688751 251.766985 
L 330.798533 251.739598 
L 330.79974 251.739598 
L 331.274628 251.628607 
L 331.274628 251.628607 
L 331.382331 251.602661 
L 331.384752 251.602661 
L 331.796864 251.491669 
L 331.796864 251.491669 
L 331.904911 251.458035 
L 331.90734 251.458035 
L 332.368244 251.347044 
L 332.368244 251.347044 
L 332.477863 251.317734 
L 332.479081 251.317734 
L 332.920711 251.206743 
L 332.920711 251.206743 
L 333.030681 251.176953 
L 333.030681 251.176953 
L 333.459023 251.065962 
L 333.459023 251.065962 
L 333.569342 251.03425 
L 333.569342 251.03425 
L 334.005192 250.923258 
L 334.005192 250.923258 
L 334.11587 250.890105 
L 334.11587 250.890105 
L 334.559266 250.779114 
L 334.559266 250.779114 
L 334.670302 250.74548 
L 334.670302 250.74548 
L 335.091683 250.634488 
L 335.091683 250.634488 
L 335.200596 250.599413 
L 335.201834 250.599413 
L 335.624554 250.488902 
L 335.624554 250.488902 
L 335.733825 250.454788 
L 335.735067 250.454788 
L 336.161659 250.343797 
L 336.161659 250.343797 
L 336.272526 250.311604 
L 336.272526 250.311604 
L 336.683005 250.201093 
L 336.683005 250.201093 
L 336.792966 250.172745 
L 336.792966 250.172745 
L 337.258523 250.061753 
L 337.258523 250.061753 
L 337.366315 250.033405 
L 337.368822 250.033405 
L 337.809449 249.922414 
L 337.809449 249.922414 
L 337.920097 249.885897 
L 337.920097 249.885897 
L 338.347059 249.774906 
L 338.347059 249.774906 
L 338.458059 249.741272 
L 338.458059 249.741272 
L 338.888872 249.63028 
L 338.888872 249.63028 
L 338.998952 249.604334 
L 338.998952 249.604334 
L 339.422188 249.493343 
L 339.422188 249.493343 
L 339.530065 249.464033 
L 339.532604 249.464033 
L 339.915193 249.353522 
L 339.915193 249.353522 
L 340.025951 249.315564 
L 340.025951 249.315564 
L 340.458192 249.205053 
L 340.458192 249.205053 
L 340.565476 249.169498 
L 340.568031 249.169498 
L 340.958154 249.058506 
L 340.958154 249.058506 
L 341.067051 249.028716 
L 341.068333 249.028716 
L 341.514831 248.918205 
L 341.514831 248.918205 
L 341.622776 248.886494 
L 341.625347 248.886494 
L 342.030739 248.775502 
L 342.030739 248.775502 
L 342.140297 248.746673 
L 342.141586 248.746673 
L 342.553381 248.635682 
L 342.553381 248.635682 
L 342.661977 248.60397 
L 342.663271 248.60397 
L 343.059464 248.492978 
L 343.059464 248.492978 
L 343.165802 248.456942 
L 343.169694 248.456942 
L 343.593144 248.345951 
L 343.593144 248.345951 
L 343.703722 248.307993 
L 343.703722 248.307993 
L 344.097213 248.197001 
L 344.097213 248.197001 
L 344.208133 248.164809 
L 344.208133 248.164809 
L 344.647236 248.053818 
L 344.647236 248.053818 
L 344.753251 248.024508 
L 344.757179 248.024508 
L 345.103221 247.913517 
L 345.103221 247.913517 
L 345.212189 247.87652 
L 345.213502 247.87652 
L 345.613196 247.765528 
L 345.613196 247.765528 
L 345.722491 247.731894 
L 345.723809 247.731894 
L 346.104935 247.620903 
L 346.104935 247.620903 
L 346.215891 247.584386 
L 346.215891 247.584386 
L 346.594229 247.473875 
L 346.594229 247.473875 
L 346.70154 247.445046 
L 346.70419 247.445046 
L 347.078351 247.334055 
L 347.078351 247.334055 
L 347.187304 247.299941 
L 347.188634 247.299941 
L 347.563917 247.188949 
L 347.563917 247.188949 
L 347.674532 247.152433 
L 347.674532 247.152433 
L 348.036245 247.041441 
L 348.036245 247.041441 
L 348.147204 247.006846 
L 348.147204 247.006846 
L 348.492623 246.897296 
L 348.492623 246.897296 
L 348.602579 246.856455 
L 348.602579 246.856455 
L 348.96248 246.746905 
L 348.96248 246.746905 
L 349.071428 246.708947 
L 349.072773 246.708947 
L 349.464745 246.597956 
L 349.464745 246.597956 
L 349.574021 246.563842 
L 349.57537 246.563842 
L 349.964476 246.45285 
L 349.964476 246.45285 
L 350.074068 246.424021 
L 350.075421 246.424021 
L 350.44399 246.31303 
L 350.44399 246.31303 
L 350.551187 246.276513 
L 350.553902 246.276513 
L 350.937154 246.165522 
L 350.937154 246.165522 
L 351.047394 246.134771 
L 351.047394 246.134771 
L 351.453538 246.02474 
L 351.453538 246.02474 
L 351.564096 245.98438 
L 351.564096 245.98438 
L 351.933175 245.873389 
L 351.933175 245.873389 
L 352.044069 245.840235 
L 352.044069 245.840235 
L 352.441665 245.729244 
L 352.441665 245.729244 
L 352.551503 245.699454 
L 352.551503 245.699454 
L 352.936477 245.588462 
L 352.936477 245.588462 
L 353.045254 245.547621 
L 353.046631 245.547621 
L 353.434158 245.437591 
L 353.434158 245.437591 
L 353.544642 245.404918 
L 353.544642 245.404918 
L 353.865498 245.293927 
L 353.865498 245.293927 
L 353.9763 245.259812 
L 353.9763 245.259812 
L 354.343866 245.148821 
L 354.343866 245.148821 
L 354.453602 245.108941 
L 354.453602 245.108941 
L 354.815332 244.99795 
L 354.815332 244.99795 
L 354.924015 244.956628 
L 354.925409 244.956628 
L 355.263097 244.845637 
L 355.263097 244.845637 
L 355.372105 244.800952 
L 355.373503 244.800952 
L 355.710812 244.690441 
L 355.710812 244.690441 
L 355.821559 244.648639 
L 355.821559 244.648639 
L 356.136026 244.538128 
L 356.136026 244.538128 
L 356.245686 244.502092 
L 356.247093 244.502092 
L 356.600499 244.3911 
L 356.600499 244.3911 
L 356.710473 244.353623 
L 356.710473 244.353623 
L 357.029596 244.243112 
L 357.029596 244.243112 
L 357.138477 244.209478 
L 357.139891 244.209478 
L 357.523629 244.098487 
L 357.523629 244.098487 
L 357.634237 244.059087 
L 357.634237 244.059087 
L 357.955214 243.948096 
L 357.955214 243.948096 
L 358.064724 243.907735 
L 358.066147 243.907735 
L 358.417957 243.796744 
L 358.417957 243.796744 
L 358.527793 243.757344 
L 358.527793 243.757344 
L 358.82919 243.646833 
L 358.82919 243.646833 
L 358.939339 243.609836 
L 358.939339 243.609836 
L 359.245899 243.498845 
L 359.245899 243.498845 
L 359.356358 243.465211 
L 359.356358 243.465211 
L 359.686754 243.354219 
L 359.686754 243.354219 
L 359.79609 243.316261 
L 359.797529 243.316261 
L 360.10008 243.20527 
L 360.10008 243.20527 
L 360.21117 243.166351 
L 360.21117 243.166351 
L 360.540594 243.055359 
L 360.540594 243.055359 
L 360.649109 243.013557 
L 360.650557 243.013557 
L 360.98092 242.903046 
L 360.98092 242.903046 
L 361.089753 242.858842 
L 361.091205 242.858842 
L 361.455984 242.748331 
L 361.455984 242.748331 
L 361.563679 242.706529 
L 361.566591 242.706529 
L 361.863898 242.595538 
L 361.863898 242.595538 
L 361.97337 242.549411 
L 361.97483 242.549411 
L 362.294966 242.43842 
L 362.294966 242.43842 
L 362.403283 242.405747 
L 362.404747 242.405747 
L 362.692037 242.295717 
L 362.692037 242.295717 
L 362.802117 242.260641 
L 362.802117 242.260641 
L 363.093132 242.15013 
L 363.093132 242.15013 
L 363.203519 242.112172 
L 363.203519 242.112172 
L 363.471747 242.001661 
L 363.471747 242.001661 
L 363.582444 241.959379 
L 363.582444 241.959379 
L 363.903182 241.848388 
L 363.903182 241.848388 
L 364.014194 241.806105 
L 364.014194 241.806105 
L 364.323991 241.695114 
L 364.323991 241.695114 
L 364.433845 241.647065 
L 364.433845 241.647065 
L 364.737122 241.538957 
L 364.737122 241.538957 
L 364.84729 241.493792 
L 364.84729 241.493792 
L 365.132047 241.383761 
L 365.132047 241.383761 
L 365.242531 241.339076 
L 365.242531 241.339076 
L 365.578922 241.228085 
L 365.578922 241.228085 
L 365.68822 241.19301 
L 365.689718 241.19301 
L 365.973053 241.082018 
L 365.973053 241.082018 
L 366.084158 241.031087 
L 366.084158 241.031087 
L 366.33676 240.921057 
L 366.33676 240.921057 
L 366.44669 240.870606 
L 366.44669 240.870606 
L 366.745294 240.760575 
L 366.745294 240.760575 
L 366.852522 240.715891 
L 366.855544 240.715891 
L 367.156529 240.60538 
L 367.156529 240.60538 
L 367.265568 240.562617 
L 367.267083 240.562617 
L 367.602268 240.451625 
L 367.602268 240.451625 
L 367.711618 240.407901 
L 367.713137 240.407901 
L 368.018834 240.297871 
L 368.018834 240.297871 
L 368.126967 240.254147 
L 368.128491 240.254147 
L 368.412157 240.145077 
L 368.412157 240.145077 
L 368.522125 240.09751 
L 368.522125 240.09751 
L 368.805077 239.986999 
L 368.805077 239.986999 
L 368.915352 239.940872 
L 368.915352 239.940872 
L 369.196016 239.829881 
L 369.196016 239.829881 
L 369.306597 239.784716 
L 369.306597 239.784716 
L 369.583429 239.674205 
L 369.583429 239.674205 
L 369.692791 239.620871 
L 369.694332 239.620871 
L 370.024434 239.51036 
L 370.024434 239.51036 
L 370.134117 239.459429 
L 370.134117 239.459429 
L 370.403295 239.348918 
L 370.403295 239.348918 
L 370.511743 239.298948 
L 370.513293 239.298948 
L 370.773944 239.187957 
L 370.773944 239.187957 
L 370.884249 239.145674 
L 370.884249 239.145674 
L 371.178261 239.035644 
L 371.178261 239.035644 
L 371.288858 238.993842 
L 371.288858 238.993842 
L 371.56026 238.883331 
L 371.56026 238.883331 
L 371.671169 238.83288 
L 371.671169 238.83288 
L 371.907373 238.721889 
L 371.907373 238.721889 
L 372.017022 238.680087 
L 372.017022 238.680087 
L 372.220925 238.569095 
L 372.220925 238.569095 
L 372.32931 238.514801 
L 372.330882 238.514801 
L 372.599885 238.40429 
L 372.599885 238.40429 
L 372.710152 238.353359 
L 372.710152 238.353359 
L 372.976748 238.242367 
L 372.976748 238.242367 
L 373.087327 238.198163 
L 373.087327 238.198163 
L 373.35623 238.087652 
L 373.35623 238.087652 
L 373.467116 238.031435 
L 373.467116 238.031435 
L 373.741564 237.920924 
L 373.741564 237.920924 
L 373.851186 237.866149 
L 373.851186 237.866149 
L 374.104139 237.755158 
L 374.104139 237.755158 
L 374.214055 237.712876 
L 374.214055 237.712876 
L 374.426217 237.601884 
L 374.426217 237.601884 
L 374.536437 237.552394 
L 374.536437 237.552394 
L 374.777974 237.442845 
L 374.777974 237.442845 
L 374.888498 237.393835 
L 374.888498 237.393835 
L 375.146736 237.282844 
L 375.146736 237.282844 
L 375.257562 237.237198 
L 375.257562 237.237198 
L 375.513283 237.126207 
L 375.513283 237.126207 
L 375.622799 237.078158 
L 375.622799 237.078158 
L 375.866331 236.967647 
L 375.866331 236.967647 
L 375.976148 236.919599 
L 375.976148 236.919599 
L 376.225184 236.809088 
L 376.225184 236.809088 
L 376.3353 236.753833 
L 376.3353 236.753833 
L 376.53799 236.643322 
L 376.53799 236.643322 
L 376.648427 236.580859 
L 376.648427 236.580859 
L 376.890763 236.469868 
L 376.890763 236.469868 
L 377.001517 236.414132 
L 377.001517 236.414132 
L 377.224967 236.304101 
L 377.224967 236.304101 
L 377.336032 236.245482 
L 377.336032 236.245482 
L 377.576465 236.139776 
L 377.576465 236.139776 
L 377.686219 236.077794 
L 377.686219 236.077794 
L 377.924067 235.967764 
L 377.924067 235.967764 
L 378.034115 235.919715 
L 378.034115 235.919715 
L 378.27257 235.810165 
L 378.27257 235.810165 
L 378.382911 235.754429 
L 378.382911 235.754429 
L 378.638534 235.644399 
L 378.638534 235.644399 
L 378.749182 235.590585 
L 378.749182 235.590585 
L 378.950939 235.482476 
L 378.950939 235.482476 
L 379.061883 235.436831 
L 379.061883 235.436831 
L 379.289024 235.325839 
L 379.289024 235.325839 
L 379.398598 235.274908 
L 379.398598 235.274908 
L 379.624695 235.165358 
L 379.624695 235.165358 
L 379.732899 235.110583 
L 379.734565 235.110583 
L 379.962946 235.000553 
L 379.962946 235.000553 
L 380.073118 234.940492 
L 380.073118 234.940492 
L 380.297134 234.829981 
L 380.297134 234.829981 
L 380.407615 234.776648 
L 380.407615 234.776648 
L 380.655687 234.665656 
L 380.655687 234.665656 
L 380.766474 234.601752 
L 380.766474 234.601752 
L 380.995109 234.490761 
L 380.995109 234.490761 
L 381.102847 234.435505 
L 381.106215 234.435505 
L 381.308484 234.324514 
L 381.308484 234.324514 
L 381.418192 234.27118 
L 381.418192 234.27118 
L 381.617634 234.160669 
L 381.617634 234.160669 
L 381.725953 234.103011 
L 381.727646 234.103011 
L 381.92593 233.992981 
L 381.92593 233.992981 
L 382.036248 233.93196 
L 382.036248 233.93196 
L 382.23169 233.821929 
L 382.23169 233.821929 
L 382.342313 233.756584 
L 382.342313 233.756584 
L 382.536615 233.645592 
L 382.536615 233.645592 
L 382.645847 233.585051 
L 382.647555 233.585051 
L 382.859472 233.47406 
L 382.859472 233.47406 
L 382.96899 233.426973 
L 382.96899 233.426973 
L 383.166028 233.316462 
L 383.166028 233.316462 
L 383.274126 233.25544 
L 383.275843 233.25544 
L 383.488885 233.14493 
L 383.488885 233.14493 
L 383.597277 233.082947 
L 383.598998 233.082947 
L 383.819532 232.972917 
L 383.819532 232.972917 
L 383.929944 232.917661 
L 383.929944 232.917661 
L 384.099245 232.80667 
L 384.099245 232.80667 
L 384.209965 232.731715 
L 384.209965 232.731715 
L 384.400533 232.620723 
L 384.400533 232.620723 
L 384.511573 232.556819 
L 384.511573 232.556819 
L 384.685306 232.446789 
L 384.685306 232.446789 
L 384.794916 232.383845 
L 384.794916 232.383845 
L 385.019664 232.272854 
L 385.019664 232.272854 
L 385.129579 232.200782 
L 385.129579 232.200782 
L 385.340998 232.091232 
L 385.340998 232.091232 
L 385.451224 232.01964 
L 385.451224 232.01964 
L 385.640479 231.908648 
L 385.640479 231.908648 
L 385.751019 231.850029 
L 385.751019 231.850029 
L 385.919682 231.74096 
L 385.919682 231.74096 
L 386.030519 231.672731 
L 386.030519 231.672731 
L 386.245471 231.562221 
L 386.245471 231.562221 
L 386.354868 231.48198 
L 386.354868 231.48198 
L 386.543928 231.371469 
L 386.543928 231.371469 
L 386.651884 231.287865 
L 386.653655 231.287865 
L 386.827347 231.176874 
L 386.827347 231.176874 
L 386.937405 231.096153 
L 386.937405 231.096153 
L 387.134734 230.986603 
L 387.134734 230.986603 
L 387.245098 230.925581 
L 387.245098 230.925581 
L 387.442947 230.816512 
L 387.442947 230.816512 
L 387.553614 230.745881 
L 387.553614 230.745881 
L 387.721626 230.636331 
L 387.721626 230.636331 
L 387.83261 230.558493 
L 387.83261 230.558493 
L 387.981399 230.447501 
L 387.981399 230.447501 
L 388.090889 230.379273 
L 388.090889 230.379273 
L 388.272432 230.268762 
L 388.272432 230.268762 
L 388.382222 230.209663 
L 388.382222 230.209663 
L 388.598492 230.098671 
L 388.598492 230.098671 
L 388.70858 230.028521 
L 388.70858 230.028521 
L 388.900135 229.917529 
L 388.900135 229.917529 
L 389.010522 229.854106 
L 389.010522 229.854106 
L 389.16998 229.743114 
L 389.16998 229.743114 
L 389.280673 229.662393 
L 389.280673 229.662393 
L 389.436947 229.555726 
L 389.436947 229.555726 
L 389.54797 229.462032 
L 389.54797 229.462032 
L 389.710207 229.351521 
L 389.710207 229.351521 
L 389.81974 229.262151 
L 389.81974 229.262151 
L 390.008068 229.152601 
L 390.008068 229.152601 
L 390.117938 229.062271 
L 390.117938 229.062271 
L 390.303171 228.951279 
L 390.303171 228.951279 
L 390.413348 228.887856 
L 390.413348 228.887856 
L 390.584341 228.777825 
L 390.584341 228.777825 
L 390.694808 228.709597 
L 390.694808 228.709597 
L 390.871799 228.599086 
L 390.871799 228.599086 
L 390.980733 228.514521 
L 390.982581 228.514521 
L 391.154541 228.40401 
L 391.154541 228.40401 
L 391.265627 228.337223 
L 391.265627 228.337223 
L 391.410214 228.232958 
L 391.410214 228.232958 
L 391.519733 228.151276 
L 391.519733 228.151276 
L 391.694464 228.042207 
L 391.694464 228.042207 
L 391.804287 227.973498 
L 391.804287 227.973498 
L 391.938497 227.863467 
L 391.938497 227.863467 
L 392.048649 227.760644 
L 392.048649 227.760644 
L 392.207583 227.651094 
L 392.207583 227.651094 
L 392.318045 227.56749 
L 392.318045 227.56749 
L 392.469929 227.45794 
L 392.469929 227.45794 
L 392.580721 227.369051 
L 392.580721 227.369051 
L 392.716115 227.25854 
L 392.716115 227.25854 
L 392.827215 227.186948 
L 392.827215 227.186948 
L 392.945996 227.077878 
L 392.945996 227.077878 
L 393.055539 226.975055 
L 393.055539 226.975055 
L 393.214416 226.864064 
L 393.214416 226.864064 
L 393.322373 226.786706 
L 393.324268 226.786706 
L 393.455131 226.675715 
L 393.455131 226.675715 
L 393.565303 226.582982 
L 393.565303 226.582982 
L 393.726989 226.472951 
L 393.726989 226.472951 
L 393.837492 226.365323 
L 393.837492 226.365323 
L 393.967246 226.255773 
L 393.967246 226.255773 
L 394.078075 226.175532 
L 394.078075 226.175532 
L 394.217753 226.064541 
L 394.217753 226.064541 
L 394.326984 225.972769 
L 394.326984 225.972769 
L 394.457487 225.861777 
L 394.457487 225.861777 
L 394.565107 225.778174 
L 394.56703 225.778174 
L 394.688281 225.667663 
L 394.688281 225.667663 
L 394.796201 225.582617 
L 394.798129 225.582617 
L 394.964085 225.472106 
L 394.964085 225.472106 
L 395.074257 225.372646 
L 395.074257 225.372646 
L 395.207803 225.262616 
L 395.207803 225.262616 
L 395.318292 225.168441 
L 395.318292 225.168441 
L 395.432827 225.05793 
L 395.432827 225.05793 
L 395.54171 224.952705 
L 395.543655 224.952705 
L 395.699416 224.842674 
L 395.699416 224.842674 
L 395.808607 224.750902 
L 395.808607 224.750902 
L 395.947257 224.641833 
L 395.947257 224.641833 
L 396.056761 224.553424 
L 396.056761 224.553424 
L 396.186001 224.442913 
L 396.186001 224.442913 
L 396.295814 224.354024 
L 396.295814 224.354024 
L 396.423468 224.244474 
L 396.423468 224.244474 
L 396.533585 224.158467 
L 396.533585 224.158467 
L 396.657635 224.049878 
L 396.657635 224.049878 
L 396.76609 223.960509 
L 396.768063 223.960509 
L 396.892446 223.8524 
L 396.892446 223.8524 
L 397.001212 223.74285 
L 397.003191 223.74285 
L 397.112128 223.631859 
L 397.112128 223.631859 
L 397.223208 223.528555 
L 397.223208 223.528555 
L 397.360281 223.418525 
L 397.360281 223.418525 
L 397.467705 223.317143 
L 397.469696 223.317143 
L 397.565316 223.209995 
L 397.565316 223.209995 
L 397.675042 223.115821 
L 397.675042 223.115821 
L 397.796915 223.006271 
L 397.796915 223.006271 
L 397.906964 222.89576 
L 397.906964 222.89576 
L 398.017174 222.788132 
L 398.017174 222.788132 
L 398.125538 222.692996 
L 398.127546 222.692996 
L 398.264189 222.582966 
L 398.264189 222.582966 
L 398.374892 222.459482 
L 398.374892 222.459482 
L 398.465601 222.350893 
L 398.465601 222.350893 
L 398.576639 222.250472 
L 398.576639 222.250472 
L 398.669639 222.139961 
L 398.669639 222.139961 
L 398.778955 222.053474 
L 398.778955 222.053474 
L 398.87017 221.945846 
L 398.87017 221.945846 
L 398.979796 221.83005 
L 398.979796 221.83005 
L 399.079428 221.721461 
L 399.079428 221.721461 
L 399.189386 221.610469 
L 399.189386 221.610469 
L 399.268919 221.499958 
L 399.268919 221.499958 
L 399.379249 221.359177 
L 399.379249 221.359177 
L 399.495889 221.248666 
L 399.495889 221.248666 
L 399.606566 221.105963 
L 399.606566 221.105963 
L 399.729765 220.994971 
L 399.729765 220.994971 
L 399.84081 220.88446 
L 399.84081 220.88446 
L 399.939659 220.778754 
L 399.939659 220.778754 
L 400.04899 220.626441 
L 400.04899 220.626441 
L 400.156449 220.521216 
L 400.156449 220.521216 
L 400.266145 220.392927 
L 400.266145 220.392927 
L 400.386379 220.285779 
L 400.386379 220.285779 
L 400.496427 220.148842 
L 400.496427 220.148842 
L 400.581692 220.039772 
L 400.581692 220.039772 
L 400.692074 219.924457 
L 400.692074 219.924457 
L 400.779669 219.822114 
L 400.779669 219.822114 
L 400.8904 219.688059 
L 400.8904 219.688059 
L 400.965726 219.577068 
L 400.965726 219.577068 
L 401.076821 219.43004 
L 401.076821 219.43004 
L 401.190199 219.32001 
L 401.190199 219.32001 
L 401.299537 219.192682 
L 401.299537 219.192682 
L 401.398521 219.083612 
L 401.398521 219.083612 
L 401.508215 218.936104 
L 401.508215 218.936104 
L 401.582179 218.825113 
L 401.582179 218.825113 
L 401.692237 218.698266 
L 401.692237 218.698266 
L 401.781264 218.587274 
L 401.781264 218.587274 
L 401.891649 218.465232 
L 401.891649 218.465232 
L 402.000082 218.35424 
L 402.000082 218.35424 
L 402.110834 218.209615 
L 402.110834 218.209615 
L 402.215362 218.099104 
L 402.215362 218.099104 
L 402.324338 217.93622 
L 402.324338 217.93622 
L 402.401403 217.829553 
L 402.401403 217.829553 
L 402.510761 217.671955 
L 402.510761 217.671955 
L 402.616019 217.562405 
L 402.616019 217.562405 
L 402.725746 217.409131 
L 402.725746 217.409131 
L 402.811958 217.299101 
L 402.811958 217.299101 
L 402.922064 217.144866 
L 402.922064 217.144866 
L 403.006404 217.035316 
L 403.006404 217.035316 
L 403.116868 216.892613 
L 403.116868 216.892613 
L 403.184121 216.786426 
L 403.184121 216.786426 
L 403.294955 216.612011 
L 403.294955 216.612011 
L 403.399457 216.505824 
L 403.399457 216.505824 
L 403.508523 216.326124 
L 403.508523 216.326124 
L 403.574078 216.217054 
L 403.574078 216.217054 
L 403.683521 216.041198 
L 403.683521 216.041198 
L 403.72957 215.93357 
L 403.72957 215.93357 
L 403.839387 215.795191 
L 403.839387 215.795191 
L 403.938372 215.689965 
L 403.938372 215.689965 
L 404.048548 215.509784 
L 404.048548 215.509784 
L 404.125805 215.400234 
L 404.125805 215.400234 
L 404.236404 215.20612 
L 404.236404 215.20612 
L 404.278505 215.09657 
L 404.278505 215.09657 
L 404.3895 214.913986 
L 404.3895 214.913986 
L 404.45845 214.803475 
L 404.45845 214.803475 
L 404.56764 214.620412 
L 404.56764 214.620412 
L 404.63906 214.510381 
L 404.63906 214.510381 
L 404.748604 214.366717 
L 404.748604 214.366717 
L 404.820263 214.257167 
L 404.820263 214.257167 
L 404.930168 214.076986 
L 404.930168 214.076986 
L 405.004326 213.969358 
L 405.004326 213.969358 
L 405.114654 213.760829 
L 405.114654 213.760829 
L 405.182327 213.654642 
L 405.182327 213.654642 
L 405.29308 213.469656 
L 405.29308 213.469656 
L 405.381373 213.360106 
L 405.381373 213.360106 
L 405.490223 213.192418 
L 405.490223 213.192418 
L 405.560639 213.08479 
L 405.560639 213.08479 
L 405.669858 212.882987 
L 405.669858 212.882987 
L 405.738254 212.774398 
L 405.738254 212.774398 
L 405.84789 212.582686 
L 405.84789 212.582686 
L 405.92569 212.480343 
L 405.92569 212.480343 
L 406.035712 212.304006 
L 406.035712 212.304006 
L 406.111483 212.197819 
L 406.111483 212.197819 
L 406.22189 211.99938 
L 406.22189 211.99938 
L 406.281805 211.892713 
L 406.281805 211.892713 
L 406.392602 211.697157 
L 406.392602 211.697157 
L 406.457356 211.592892 
L 406.457356 211.592892 
L 406.566255 211.387726 
L 406.566255 211.387726 
L 406.633583 211.278176 
L 406.633583 211.278176 
L 406.742921 211.047064 
L 406.742921 211.047064 
L 406.805848 210.937034 
L 406.805848 210.937034 
L 406.915602 210.750126 
L 406.915602 210.750126 
L 406.976416 210.639615 
L 406.976416 210.639615 
L 407.086588 210.391686 
L 407.086588 210.391686 
L 407.147652 210.282616 
L 407.147652 210.282616 
L 407.258246 210.090904 
L 407.258246 210.090904 
L 407.307739 209.996249 
L 407.307739 209.996249 
L 407.418736 209.741113 
L 407.418736 209.741113 
L 407.475532 209.635887 
L 407.475532 209.635887 
L 407.584645 209.350481 
L 407.584645 209.350481 
L 407.627447 209.245736 
L 407.627447 209.245736 
L 407.734691 208.968017 
L 407.737078 208.968017 
L 407.782451 208.857506 
L 407.782451 208.857506 
L 407.892509 208.664352 
L 407.892509 208.664352 
L 407.940436 208.554321 
L 407.940436 208.554321 
L 408.050918 208.286212 
L 408.050918 208.286212 
L 408.127938 208.176662 
L 408.127938 208.176662 
L 408.238885 207.957562 
L 408.238885 207.957562 
L 408.301699 207.849934 
L 408.301699 207.849934 
L 408.410677 207.523206 
L 408.410677 207.523206 
L 408.44952 207.419422 
L 408.44952 207.419422 
L 408.55904 207.116238 
L 408.55904 207.116238 
L 408.607826 207.00909 
L 408.607826 207.00909 
L 408.71784 206.765485 
L 408.71784 206.765485 
L 408.776616 206.657857 
L 408.776616 206.657857 
L 408.884607 206.363802 
L 408.887065 206.363802 
L 408.933799 206.253772 
L 408.933799 206.253772 
L 409.044821 205.870827 
L 409.044821 205.870827 
L 409.08192 205.761758 
L 409.08192 205.761758 
L 409.191034 205.497492 
L 409.191034 205.497492 
L 409.233258 205.393708 
L 409.233258 205.393708 
L 409.342756 205.161635 
L 409.342756 205.161635 
L 409.380154 205.057851 
L 409.380154 205.057851 
L 409.490092 204.725357 
L 409.490092 204.725357 
L 409.525163 204.615807 
L 409.525163 204.615807 
L 409.635681 204.255926 
L 409.635681 204.255926 
L 409.663383 204.145895 
L 409.663383 204.145895 
L 409.774445 203.753822 
L 409.774445 203.753822 
L 409.812415 203.68223 
L 409.812415 203.68223 
L 409.921596 203.289676 
L 409.921596 203.289676 
L 409.969942 203.184931 
L 409.969942 203.184931 
L 410.079638 202.833698 
L 410.079638 202.833698 
L 410.097538 202.724629 
L 410.097538 202.724629 
L 410.207759 202.451234 
L 410.207759 202.451234 
L 410.241138 202.340723 
L 410.241138 202.340723 
L 410.351862 201.910691 
L 410.351862 201.910691 
L 410.39577 201.801622 
L 410.39577 201.801622 
L 410.504562 201.317776 
L 410.504562 201.317776 
L 410.530555 201.21207 
L 410.530555 201.21207 
L 410.639983 200.880057 
L 410.639983 200.880057 
L 410.679154 200.774831 
L 410.679154 200.774831 
L 410.789128 200.318853 
L 410.789128 200.318853 
L 410.815394 200.218913 
L 410.815394 200.218913 
L 410.925969 199.884978 
L 410.925969 199.884978 
L 410.96554 199.806659 
L 410.96554 199.806659 
L 411.074073 199.271402 
L 411.074073 199.271402 
L 411.095315 199.191161 
L 411.095315 199.191161 
L 411.204539 198.690018 
L 411.204539 198.690018 
L 411.247283 198.58287 
L 411.247283 198.58287 
L 411.357145 198.120166 
L 411.357145 198.120166 
L 411.381332 198.026952 
L 411.381332 198.026952 
L 411.491996 197.269231 
L 411.491996 197.269231 
L 411.51639 197.163525 
L 411.51639 197.163525 
L 411.625182 196.523042 
L 411.625182 196.523042 
L 411.649765 196.415414 
L 411.649765 196.415414 
L 411.759395 195.855652 
L 411.759395 195.855652 
L 411.806141 195.748024 
L 411.806141 195.748024 
L 411.916516 195.182977 
L 411.916516 195.182977 
L 411.938663 195.07631 
L 411.938663 195.07631 
L 412.046997 194.531443 
L 412.046997 194.531443 
L 412.07207 194.437749 
L 412.07207 194.437749 
L 412.181111 193.846275 
L 412.181111 193.846275 
L 412.19794 193.743452 
L 412.19794 193.743452 
L 412.307882 192.929995 
L 412.307882 192.929995 
L 412.316373 192.852157 
L 412.316373 192.852157 
L 412.42726 192.12855 
L 412.42726 192.12855 
L 412.458639 192.017559 
L 412.458639 192.017559 
L 412.567541 191.144042 
L 412.567541 191.144042 
L 412.573298 191.116174 
L 412.573298 191.116174 
L 412.683235 190.279174 
L 412.683235 190.279174 
L 412.697753 190.170104 
L 412.697753 190.170104 
L 412.808622 189.352804 
L 412.808622 189.352804 
L 412.82034 189.252863 
L 412.82034 189.252863 
L 412.9293 188.136703 
L 412.9293 188.136703 
L 412.944113 188.055021 
L 412.944113 188.055021 
L 413.054117 187.249252 
L 413.054117 187.249252 
L 413.066066 187.148831 
L 413.066066 187.148831 
L 413.177113 186.189308 
L 413.177113 186.189308 
L 413.195208 186.086004 
L 413.195208 186.086004 
L 413.304475 184.755068 
L 413.304475 184.755068 
L 413.319752 184.694046 
L 413.319752 184.694046 
L 413.43056 183.035421 
L 413.43056 183.035421 
L 413.45228 182.94509 
L 413.45228 182.94509 
L 413.561451 182.006708 
L 413.561451 182.006708 
L 413.577107 181.943285 
L 413.577107 181.943285 
L 413.687266 180.555652 
L 413.687266 180.555652 
L 413.69678 180.465321 
L 413.69678 180.465321 
L 413.805391 178.786035 
L 413.805391 178.786035 
L 413.815053 178.684653 
L 413.815053 178.684653 
L 413.925309 176.82903 
L 413.925309 176.82903 
L 413.928582 176.82903 
L 413.928582 176.82903 
L 414.037769 174.132563 
L 414.037769 174.132563 
L 414.047813 174.086917 
L 414.047813 174.086917 
L 414.155934 171.755136 
L 414.155934 171.755136 
L 414.16959 171.650871 
L 414.16959 171.650871 
L 414.280683 167.653738 
L 414.280683 167.653738 
L 414.287737 167.619624 
L 414.287737 167.619624 
L 414.395399 163.114141 
L 414.395399 163.114141 
L 414.406355 163.040627 
L 414.406355 163.040627 
L 414.515306 153.803834 
L 414.515306 153.803834 
L 414.519214 153.803834 
L 414.519214 153.803834 
L 414.62919 138.216985 
L 414.62919 138.216985 
L 414.633529 138.216985 
L 414.633529 138.216985 
L 414.713327 53.568 
L 414.72 53.568 
" style="fill:none;stroke:#1f77b4;stroke-linecap:square;stroke-width:0.6;"/>
   </g>
   <g id="patch_3">
    <path d="M 57.6 307.584 
L 57.6 41.472 
" style="fill:none;stroke:#000000;stroke-linecap:square;stroke-linejoin:miter;stroke-width:0.8;"/>
   </g>
   <g id="patch_4">
    <path d="M 414.72 307.584 
L 414.72 41.472 
" style="fill:none;stroke:#000000;stroke-linecap:square;stroke-linejoin:miter;stroke-width:0.8;"/>
   </g>
   <g id="patch_5">
    <path d="M 57.6 307.584 
L 414.72 307.584 
" style="fill:none;stroke:#000000;stroke-linecap:square;stroke-linejoin:miter;stroke-width:0.8;"/>
   </g>
   <g id="patch_6">
    <path d="M 57.6 41.472 
L 414.72 41.472 
" style="fill:none;stroke:#000000;stroke-linecap:square;stroke-linejoin:miter;stroke-width:0.8;"/>
   </g>
   <g id="text_15">
    <!-- Nx -->
    <g transform="translate(228.12 35.472)scale(0.12 -0.12)">
     <defs>
      <path d="M 9.8125 72.90625 
L 23.09375 72.90625 
L 55.421875 11.921875 
L 55.421875 72.90625 
L 64.984375 72.90625 
L 64.984375 0 
L 51.703125 0 
L 19.390625 60.984375 
L 19.390625 0 
L 9.8125 0 
z
" id="DejaVuSans-78"/>
      <path d="M 54.890625 54.6875 
L 35.109375 28.078125 
L 55.90625 0 
L 45.3125 0 
L 29.390625 21.484375 
L 13.484375 0 
L 2.875 0 
L 24.125 28.609375 
L 4.6875 54.6875 
L 15.28125 54.6875 
L 29.78125 35.203125 
L 44.28125 54.6875 
z
" id="DejaVuSans-120"/>
     </defs>
     <use xlink:href="#DejaVuSans-78"/>
     <use x="74.804688" xlink:href="#DejaVuSans-120"/>
    </g>
   </g>
   <g id="legend_1">
    <g id="patch_7">
     <path d="M 403.72 54.472 
L 407.72 54.472 
Q 409.72 54.472 409.72 52.472 
L 409.72 48.472 
Q 409.72 46.472 407.72 46.472 
L 403.72 46.472 
Q 401.72 46.472 401.72 48.472 
L 401.72 52.472 
Q 401.72 54.472 403.72 54.472 
z
" style="fill:#ffffff;opacity:0.8;stroke:#cccccc;stroke-linejoin:miter;"/>
    </g>
   </g>
  </g>
 </g>
 <defs>
  <clipPath id="pf0acb50f9e">
   <rect height="266.112" width="357.12" x="57.6" y="41.472"/>
  </clipPath>
 </defs>
</svg>
